<svg width="332" height="163" viewBox="0 0 332 163" fill="none" xmlns="http://www.w3.org/2000/svg">
<path d="M5.67146 45.3643C9.07146 61.7343 26.3015 67.9143 39.1615 75.4843C47.5715 80.4343 56.0115 89.0743 60.3115 97.8643L59.9715 98.3343C52.3415 92.2943 46.4715 86.8043 36.9915 83.4443C26.4215 79.7843 15.3715 79.6843 6.82146 71.5443C0.311456 65.4043 -4.02854 51.2743 5.67146 45.3643Z" fill="white"/>
<path fill-rule="evenodd" clip-rule="evenodd" d="M55.448 54.2412C55.3224 54.0488 55.1969 53.8565 55.0715 53.6643L55.448 54.2412Z" fill="white"/>
<path d="M52.6915 113.144C42.0415 125.134 42.5015 153.504 49.1815 161.504C51.7356 164.563 52.3599 161.711 53.6202 155.955C55.6561 146.657 59.3514 129.779 75.5215 117.994C81.6115 113.634 86.2314 106.544 87.4714 99.1443C90.1314 82.8943 81.5415 69.4043 68.8815 60.2343C68.7158 60.1137 68.546 59.9898 68.3724 59.863C64.7726 57.2346 59.517 53.3972 55.0715 53.6643C55.1969 53.8565 55.3224 54.0488 55.448 54.2412C63.4201 66.4546 71.5245 78.8705 66.0014 94.5043C63.6323 101.266 59.8151 105.396 55.5239 110.038C54.5985 111.039 53.6511 112.064 52.6915 113.144Z" fill="white"/>
<path d="M19.4315 19.4243C18.7615 28.2843 19.0514 36.0843 24.0614 43.7843C34.6114 60.0243 59.9614 73.8543 61.1614 95.3143C61.1814 95.7143 60.6614 95.8843 60.4414 95.5643C54.8614 87.6943 49.1114 78.5043 40.9214 73.0743C30.4614 66.1943 17.7115 62.4743 10.8815 51.0843C5.09145 41.4143 7.06145 23.6243 19.4415 19.4243" fill="white"/>
<path d="M110.721 60.0043C123.421 73.4343 102.201 91.8543 89.7915 77.9943C78.3415 65.1943 98.9615 47.5743 110.721 60.0043Z" fill="white"/>
<path d="M59.8615 22.1243C54.2715 30.7443 57.7615 43.5343 60.3115 49.1443C60.8815 50.4043 59.3015 50.3942 57.9715 50.0142C55.3315 49.2642 52.4115 48.2142 50.7015 46.6742C41.6415 38.6642 49.6315 26.6943 57.8215 22.0143C58.4615 21.6443 59.2615 21.6743 59.8615 22.1143V22.1243Z" fill="white"/>
<path d="M46.3415 0.114295C43.5315 3.99429 40.6515 7.62429 39.4515 12.3643C35.6815 27.3243 45.3915 44.6843 53.5815 56.5743C60.7515 66.9843 69.1115 80.8643 63.1415 93.8443C62.9715 94.2143 62.3615 94.2043 62.2815 93.8043C61.2015 87.9343 61.2015 83.5943 50.3415 67.9943C41.5015 55.3143 26.4115 47.5143 22.9715 31.4843C19.8515 16.8543 29.4015 -1.62571 46.3415 0.114295Z" fill="white"/>
<path d="M89.3815 6.14426C85.4315 8.62426 81.0515 10.7143 77.9415 14.3843C64.5815 30.6843 84.6115 49.4343 80.7315 66.6843L79.9215 66.8143C77.2215 63.1543 74.1915 59.8543 70.4515 57.0843C67.6915 55.0843 64.2915 54.0543 62.7815 50.8143C59.8515 44.4643 57.5315 36.2443 58.7015 29.1843C60.8915 15.9843 75.4715 2.54426 89.3815 6.14426Z" fill="white"/>
<path d="M58.3915 98.9143L58.0615 99.3943C50.2415 94.5343 41.5515 94.6643 40.9415 94.5743C40.9115 94.5743 40.8915 94.5743 40.8615 94.5743C39.7115 94.4943 12.2015 92.5243 2.87146 75.9643C2.87146 75.9643 9.07146 80.1043 16.7715 81.5043C21.2515 82.3143 28.4815 81.8843 40.3715 87.0543C46.0015 89.3143 58.3915 98.9243 58.3915 98.9243V98.9143Z" fill="white"/>
<path d="M9.89148 82.1843L9.08148 82.3143L9.89148 82.1843Z" fill="white"/>
<path d="M322.784 117.256C321.176 117.256 319.628 117.052 318.14 116.644C316.676 116.212 315.512 115.696 314.648 115.096L316.376 111.676C317.24 112.228 318.272 112.684 319.472 113.044C320.672 113.404 321.872 113.584 323.072 113.584C324.488 113.584 325.508 113.392 326.132 113.008C326.78 112.624 327.104 112.108 327.104 111.46C327.104 110.932 326.888 110.536 326.456 110.272C326.024 109.984 325.46 109.768 324.764 109.624C324.068 109.48 323.288 109.348 322.424 109.228C321.584 109.108 320.732 108.952 319.868 108.76C319.028 108.544 318.26 108.244 317.564 107.86C316.868 107.452 316.304 106.912 315.872 106.24C315.44 105.568 315.224 104.68 315.224 103.576C315.224 102.352 315.572 101.296 316.268 100.408C316.964 99.4963 317.936 98.8003 319.184 98.3203C320.456 97.8163 321.956 97.5643 323.684 97.5643C324.98 97.5643 326.288 97.7083 327.608 97.9963C328.928 98.2843 330.02 98.6923 330.884 99.2203L329.156 102.64C328.244 102.088 327.32 101.716 326.384 101.524C325.472 101.308 324.56 101.2 323.648 101.2C322.28 101.2 321.26 101.404 320.588 101.812C319.94 102.22 319.616 102.736 319.616 103.36C319.616 103.936 319.832 104.368 320.264 104.656C320.696 104.944 321.26 105.172 321.956 105.34C322.652 105.508 323.42 105.652 324.26 105.772C325.124 105.868 325.976 106.024 326.816 106.24C327.656 106.456 328.424 106.756 329.12 107.14C329.84 107.5 330.416 108.016 330.848 108.688C331.28 109.36 331.496 110.236 331.496 111.316C331.496 112.516 331.136 113.56 330.416 114.448C329.72 115.336 328.724 116.032 327.428 116.536C326.132 117.016 324.584 117.256 322.784 117.256Z" fill="white"/>
<path d="M306.438 117.004V90.2923H310.938V117.004H306.438Z" fill="white"/>
<path d="M293.079 117.256C290.943 117.256 289.071 116.836 287.463 115.996C285.879 115.132 284.643 113.956 283.755 112.468C282.891 110.98 282.459 109.288 282.459 107.392C282.459 105.472 282.879 103.78 283.719 102.316C284.583 100.828 285.759 99.6643 287.247 98.8243C288.759 97.9843 290.475 97.5643 292.395 97.5643C294.267 97.5643 295.935 97.9723 297.399 98.7883C298.863 99.6043 300.015 100.756 300.855 102.244C301.695 103.732 302.115 105.484 302.115 107.5C302.115 107.692 302.103 107.908 302.079 108.148C302.079 108.388 302.067 108.616 302.043 108.832H286.023V105.844H299.667L297.903 106.78C297.927 105.676 297.699 104.704 297.219 103.864C296.739 103.024 296.079 102.364 295.239 101.884C294.423 101.404 293.475 101.164 292.395 101.164C291.291 101.164 290.319 101.404 289.479 101.884C288.663 102.364 288.015 103.036 287.535 103.9C287.079 104.74 286.851 105.736 286.851 106.888V107.608C286.851 108.76 287.115 109.78 287.643 110.668C288.171 111.556 288.915 112.24 289.875 112.72C290.835 113.2 291.939 113.44 293.187 113.44C294.267 113.44 295.239 113.272 296.103 112.936C296.967 112.6 297.735 112.072 298.407 111.352L300.819 114.124C299.955 115.132 298.863 115.912 297.543 116.464C296.247 116.992 294.759 117.256 293.079 117.256Z" fill="white"/>
<path d="M267.759 124.24C265.983 124.24 264.243 124 262.539 123.52C260.859 123.064 259.479 122.392 258.399 121.504L260.415 118.12C261.255 118.816 262.311 119.368 263.583 119.776C264.879 120.208 266.187 120.424 267.507 120.424C269.619 120.424 271.167 119.932 272.151 118.948C273.135 117.988 273.627 116.536 273.627 114.592V111.172L273.987 106.816L273.843 102.46V97.7803H278.127V114.088C278.127 117.568 277.239 120.124 275.463 121.756C273.687 123.412 271.119 124.24 267.759 124.24ZM267.183 116.14C265.359 116.14 263.703 115.756 262.215 114.988C260.751 114.196 259.587 113.104 258.723 111.712C257.883 110.32 257.463 108.688 257.463 106.816C257.463 104.968 257.883 103.348 258.723 101.956C259.587 100.564 260.751 99.4843 262.215 98.7163C263.703 97.9483 265.359 97.5643 267.183 97.5643C268.815 97.5643 270.279 97.8883 271.575 98.5363C272.871 99.1843 273.903 100.192 274.671 101.56C275.463 102.928 275.859 104.68 275.859 106.816C275.859 108.952 275.463 110.716 274.671 112.108C273.903 113.476 272.871 114.496 271.575 115.168C270.279 115.816 268.815 116.14 267.183 116.14ZM267.867 112.324C268.995 112.324 270.003 112.096 270.891 111.64C271.779 111.16 272.463 110.512 272.943 109.696C273.447 108.856 273.699 107.896 273.699 106.816C273.699 105.736 273.447 104.788 272.943 103.972C272.463 103.132 271.779 102.496 270.891 102.064C270.003 101.608 268.995 101.38 267.867 101.38C266.739 101.38 265.719 101.608 264.807 102.064C263.919 102.496 263.223 103.132 262.719 103.972C262.239 104.788 261.999 105.736 261.999 106.816C261.999 107.896 262.239 108.856 262.719 109.696C263.223 110.512 263.919 111.16 264.807 111.64C265.719 112.096 266.739 112.324 267.867 112.324Z" fill="white"/>
<path d="M245.276 97.5643C246.812 97.5643 248.18 97.8643 249.38 98.4643C250.604 99.0643 251.564 99.9883 252.26 101.236C252.956 102.46 253.304 104.044 253.304 105.988V117.004H248.804V106.564C248.804 104.86 248.396 103.588 247.58 102.748C246.788 101.908 245.672 101.488 244.232 101.488C243.176 101.488 242.24 101.704 241.424 102.136C240.608 102.568 239.972 103.216 239.516 104.08C239.084 104.92 238.868 105.988 238.868 107.284V117.004H234.368V97.7803H238.652V102.964L237.896 101.38C238.568 100.156 239.54 99.2203 240.812 98.5723C242.108 97.9003 243.596 97.5643 245.276 97.5643Z" fill="white"/>
<path d="M204.271 117.004L215.611 91.8043H220.219L231.595 117.004H226.699L216.943 94.2883H218.815L209.095 117.004H204.271ZM209.491 111.172L210.751 107.5H224.359L225.619 111.172H209.491Z" fill="white"/>
<path d="M183.717 97.5643C185.253 97.5643 186.621 97.8643 187.821 98.4643C189.045 99.0643 190.005 99.9883 190.701 101.236C191.397 102.46 191.745 104.044 191.745 105.988V117.004H187.245V106.564C187.245 104.86 186.837 103.588 186.021 102.748C185.229 101.908 184.113 101.488 182.673 101.488C181.617 101.488 180.681 101.704 179.865 102.136C179.049 102.568 178.413 103.216 177.957 104.08C177.525 104.92 177.309 105.988 177.309 107.284V117.004H172.809V90.2923H177.309V102.964L176.337 101.38C177.009 100.156 177.981 99.2203 179.253 98.5723C180.549 97.9003 182.037 97.5643 183.717 97.5643Z" fill="white"/>
<path d="M164.787 117.256C162.675 117.256 161.043 116.716 159.891 115.636C158.739 114.532 158.163 112.912 158.163 110.776V93.5323H162.663V110.668C162.663 111.58 162.891 112.288 163.347 112.792C163.827 113.296 164.487 113.548 165.327 113.548C166.335 113.548 167.175 113.284 167.847 112.756L169.107 115.96C168.579 116.392 167.931 116.716 167.163 116.932C166.395 117.148 165.603 117.256 164.787 117.256ZM154.995 101.524V97.9243H167.811V101.524H154.995Z" fill="white"/>
<path d="M147.145 117.004V97.7803H151.645V117.004H147.145ZM149.413 94.6123C148.573 94.6123 147.877 94.3483 147.325 93.8203C146.797 93.2923 146.533 92.6563 146.533 91.9123C146.533 91.1443 146.797 90.5083 147.325 90.0043C147.877 89.4763 148.573 89.2123 149.413 89.2123C150.253 89.2123 150.937 89.4643 151.465 89.9683C152.017 90.4483 152.293 91.0603 152.293 91.8043C152.293 92.5963 152.029 93.2683 151.501 93.8203C150.973 94.3483 150.277 94.6123 149.413 94.6123Z" fill="white"/>
<path d="M137.122 117.004V113.116L136.87 112.288V105.484C136.87 104.164 136.474 103.144 135.682 102.424C134.89 101.68 133.69 101.308 132.082 101.308C131.002 101.308 129.934 101.476 128.878 101.812C127.846 102.148 126.97 102.616 126.25 103.216L124.486 99.9403C125.518 99.1483 126.742 98.5603 128.158 98.1763C129.598 97.7683 131.086 97.5643 132.622 97.5643C135.406 97.5643 137.554 98.2363 139.066 99.5803C140.602 100.9 141.37 102.952 141.37 105.736V117.004H137.122ZM131.074 117.256C129.634 117.256 128.374 117.016 127.294 116.536C126.214 116.032 125.374 115.348 124.774 114.484C124.198 113.596 123.91 112.6 123.91 111.496C123.91 110.416 124.162 109.444 124.666 108.58C125.194 107.716 126.046 107.032 127.222 106.528C128.398 106.024 129.958 105.772 131.902 105.772H137.482V108.76H132.226C130.69 108.76 129.658 109.012 129.13 109.516C128.602 109.996 128.338 110.596 128.338 111.316C128.338 112.132 128.662 112.78 129.31 113.26C129.958 113.74 130.858 113.98 132.01 113.98C133.114 113.98 134.098 113.728 134.962 113.224C135.85 112.72 136.486 111.976 136.87 110.992L137.626 113.692C137.194 114.82 136.414 115.696 135.286 116.32C134.182 116.944 132.778 117.256 131.074 117.256Z" fill="white"/>
<path d="M107.669 103.396H120.233V107.356H107.669V103.396ZM108.065 117.004H103.385V91.8043H121.781V95.7283H108.065V117.004Z" fill="white"/>
<path d="M220.659 147.072H223.283C223.827 149.024 225.459 149.92 228.627 149.92C231.795 149.92 233.331 149.024 233.331 147.52C233.331 146.144 231.827 145.376 228.147 144.832C222.899 144.096 220.979 142.752 220.979 139.808C220.979 136.704 223.315 135.136 227.955 135.136C232.691 135.136 234.995 136.704 235.635 140.288H233.011C232.403 138.272 230.867 137.44 227.891 137.44C224.979 137.44 223.539 138.336 223.539 139.744C223.539 141.056 225.043 141.792 228.595 142.4C231.315 142.816 233.235 143.392 234.291 144.096C235.347 144.832 235.891 145.888 235.891 147.328C235.891 150.592 233.459 152.224 228.563 152.224C223.731 152.224 221.299 150.656 220.659 147.072Z" fill="white"/>
<path d="M211.088 143.68V152H208.432V135.36H211.088V137.824C212.176 136.032 214.192 135.136 217.168 135.136H218.512V137.6H216.432C212.592 137.6 211.088 139.36 211.088 143.68Z" fill="white"/>
<path d="M189.3 137.152C190.644 135.808 192.788 135.136 195.764 135.136C198.74 135.136 200.884 135.808 202.228 137.152C203.54 138.528 204.212 140.704 204.212 143.68C204.212 146.656 203.54 148.832 202.228 150.176C200.884 151.552 198.74 152.224 195.764 152.224C192.788 152.224 190.644 151.552 189.3 150.176C187.956 148.832 187.284 146.656 187.284 143.68C187.284 140.704 187.956 138.528 189.3 137.152ZM189.908 143.68C189.908 147.904 191.668 149.76 195.764 149.76C199.828 149.76 201.588 147.904 201.588 143.68C201.588 139.424 199.86 137.6 195.764 137.6C191.668 137.6 189.908 139.424 189.908 143.68Z" fill="white"/>
<path d="M183.057 152H180.401V135.36H183.057V152ZM180.305 131.84C180.017 131.552 179.889 131.104 179.889 130.432C179.889 129.76 180.017 129.28 180.305 128.992C180.593 128.704 181.041 128.576 181.713 128.576C182.385 128.576 182.865 128.704 183.153 128.992C183.441 129.28 183.601 129.76 183.601 130.432C183.601 131.104 183.441 131.552 183.153 131.84C182.865 132.128 182.385 132.288 181.713 132.288C181.041 132.288 180.593 132.128 180.305 131.84Z" fill="white"/>
<path d="M159.244 152V135.36H161.9V137.92C163.02 136.064 165.132 135.136 168.236 135.136C173.132 135.136 175.308 137.312 175.308 142.4V152H172.652V142.4C172.652 139.072 171.084 137.6 167.532 137.6C163.532 137.6 161.9 139.36 161.9 143.68V152H159.244Z" fill="white"/>
<path d="M140.269 150.176C138.925 148.832 138.253 146.656 138.253 143.68C138.253 140.704 138.925 138.528 140.269 137.152C141.581 135.808 143.725 135.136 146.701 135.136C152.621 135.136 155.021 137.696 155.021 143.68V144.448H140.941C141.165 148.256 142.925 149.92 146.733 149.92C149.453 149.92 151.213 148.96 151.949 147.072H154.669C153.773 150.912 150.957 152.224 146.701 152.224C143.725 152.224 141.581 151.552 140.269 150.176ZM146.733 137.44C143.117 137.44 141.261 138.88 140.973 142.432H152.397C152.109 138.88 150.317 137.44 146.733 137.44Z" fill="white"/>
<path d="M115.438 145.824H118.318C119.118 148.48 121.39 149.6 125.742 149.6C130.126 149.6 132.334 148.416 132.334 146.048C132.334 144.96 131.79 144.096 130.702 143.456C129.582 142.848 127.662 142.304 124.91 141.888C121.486 141.344 119.086 140.608 117.774 139.68C116.43 138.752 115.758 137.408 115.758 135.584C115.758 131.456 118.83 129.376 124.974 129.376C130.958 129.376 133.87 131.264 134.67 135.776H131.758C131.086 133.184 128.91 132 124.782 132C120.59 132 118.51 133.152 118.51 135.424C118.51 136.448 119.022 137.216 120.046 137.76C121.038 138.304 122.83 138.816 125.422 139.232C129.07 139.84 131.598 140.64 133.006 141.568C134.382 142.528 135.086 143.936 135.086 145.824C135.086 150.08 131.886 152.224 125.454 152.224C119.31 152.224 116.302 150.304 115.438 145.824Z" fill="white"/>
<path d="M102.674 146.8V152H100.714V141.6H102.674V142.94C103.354 141.94 104.534 141.44 106.234 141.44H107.134V143.28H105.674C103.534 143.28 102.674 144.32 102.674 146.8Z" fill="white"/>
<path d="M88.9538 142.72C89.7938 141.86 91.1338 141.44 92.9938 141.44C94.8538 141.44 96.1938 141.86 97.0538 142.72C97.8938 143.58 98.3138 144.94 98.3138 146.8C98.3138 150.56 96.7338 152.16 92.9938 152.16C89.2538 152.16 87.6738 150.56 87.6738 146.8C87.6738 144.94 88.0938 143.58 88.9538 142.72ZM89.6338 146.8C89.6338 149.26 90.6538 150.32 92.9938 150.32C95.3338 150.32 96.3538 149.26 96.3538 146.8C96.3538 144.32 95.3738 143.28 92.9938 143.28C90.6138 143.28 89.6338 144.32 89.6338 146.8Z" fill="white"/>
<path d="M83.28 141.24V141.6H86.46V143.44H83.28V152H81.32V143.44H79.48V141.6H81.32V141.24C81.32 138.26 82.56 136.96 85.44 136.96H86.58V138.8H85.54C83.96 138.8 83.28 139.54 83.28 141.24Z" fill="white"/>
</svg>
