<svg width="310" height="97" viewBox="0 0 310 97" fill="none" xmlns="http://www.w3.org/2000/svg">
<path d="M3.36426 26.9097C5.38111 36.6202 15.6018 40.2861 23.2303 44.7766C28.219 47.7129 33.2255 52.8381 35.7763 58.0522L35.5746 58.331C31.0485 54.7482 27.5665 51.4915 21.943 49.4984C15.673 47.3273 9.11822 47.268 4.04643 42.4394C0.184753 38.7972 -2.3897 30.4154 3.36426 26.9097Z" fill="#758E39"/>
<path fill-rule="evenodd" clip-rule="evenodd" d="M32.8913 32.1754C32.8168 32.0613 32.7424 31.9473 32.668 31.8332L32.8913 32.1754Z" fill="#610E0E"/>
<path d="M31.2562 67.1163C24.9387 74.2286 25.2116 91.0575 29.1741 95.803C30.6891 97.6175 31.0595 95.9259 31.8071 92.5114C33.0148 86.9956 35.2068 76.9839 44.7987 69.9933C48.4113 67.4069 51.1518 63.2012 51.8874 58.8116C53.4653 49.1722 48.3698 41.1701 40.8599 35.7305C40.7617 35.659 40.661 35.5854 40.558 35.5102C38.4226 33.9511 35.305 31.6748 32.668 31.8332C32.7424 31.9473 32.8168 32.0613 32.8913 32.1754C37.6203 39.4203 42.4278 46.7853 39.1515 56.0592C37.7462 60.0703 35.4819 62.5199 32.9363 65.2737C32.3874 65.8675 31.8254 66.4755 31.2562 67.1163Z" fill="#610E0E"/>
<path d="M11.5266 11.5223C11.1291 16.778 11.3012 21.4049 14.2731 25.9724C20.5312 35.6059 35.5686 43.8097 36.2805 56.5396C36.2923 56.7769 35.9839 56.8777 35.8534 56.6879C32.5434 52.0195 29.1325 46.5681 24.2743 43.347C18.0695 39.2659 10.5063 37.0592 6.45479 30.3027C3.02021 24.5666 4.1888 14.0137 11.5325 11.5223" fill="#758E39"/>
<path d="M65.6791 35.594C73.2126 43.5606 60.6251 54.4872 53.2636 46.2655C46.4715 38.6727 58.7031 28.2206 65.6791 35.594Z" fill="#610E0E"/>
<path d="M35.5094 13.1239C32.1934 18.2372 34.2637 25.8242 35.7763 29.152C36.1144 29.8994 35.1772 29.8934 34.3882 29.668C32.8222 29.2231 31.0901 28.6003 30.0757 27.6868C24.7014 22.9353 29.441 15.8348 34.2993 13.0587C34.6789 12.8392 35.1535 12.857 35.5094 13.118V13.1239Z" fill="#758E39"/>
<path d="M27.4894 0.0677987C25.8225 2.36938 24.1142 4.52267 23.4023 7.3344C21.166 16.2085 26.9259 26.5064 31.7841 33.5594C36.0373 39.7345 40.9964 47.968 37.455 55.6677C37.3542 55.8872 36.9923 55.8812 36.9449 55.6439C36.3042 52.1619 36.3042 49.5875 29.8622 40.3337C24.6184 32.812 15.6671 28.1851 13.6265 18.6762C11.7758 9.99783 17.4407 -0.964355 27.4894 0.0677987Z" fill="#ACCE5D"/>
<path d="M53.0204 3.64475C50.6773 5.11587 48.0791 6.35564 46.2343 8.53266C38.3092 18.2017 50.1909 29.324 47.8893 39.5566L47.4088 39.6337C45.8072 37.4626 44.0098 35.5051 41.7913 33.8619C40.1541 32.6756 38.1372 32.0646 37.2415 30.1426C35.5034 26.3759 34.1272 21.4998 34.8213 17.3119C36.1204 9.48176 44.7691 1.50926 53.0204 3.64475Z" fill="#ACCE5D"/>
<path d="M34.6374 58.6751L34.4416 58.9598C29.8029 56.0769 24.648 56.154 24.2862 56.1006C24.2684 56.1006 24.2565 56.1006 24.2387 56.1006C23.5566 56.0532 7.23785 54.8846 1.70337 45.0613C1.70337 45.0613 5.38116 47.5172 9.94874 48.3476C12.6062 48.8281 16.895 48.573 23.9481 51.6398C27.2877 52.9805 34.6374 58.681 34.6374 58.681V58.6751Z" fill="#ACCE5D"/>
<path d="M5.86757 48.751L5.38708 48.8281L5.86757 48.751Z" fill="#231F20"/>
<path d="M84.6695 31.6512H97.2335V35.6112H84.6695V31.6512ZM85.0655 45.2592H80.3855V20.0592H98.7815V23.9832H85.0655V45.2592ZM114.122 45.2592V41.3712L113.87 40.5432V33.7392C113.87 32.4192 113.474 31.3992 112.682 30.6792C111.89 29.9352 110.69 29.5632 109.082 29.5632C108.002 29.5632 106.934 29.7312 105.878 30.0672C104.846 30.4032 103.97 30.8712 103.25 31.4712L101.486 28.1952C102.518 27.4032 103.742 26.8152 105.158 26.4312C106.598 26.0232 108.086 25.8192 109.622 25.8192C112.406 25.8192 114.554 26.4912 116.066 27.8352C117.602 29.1552 118.37 31.2072 118.37 33.9912V45.2592H114.122ZM108.074 45.5112C106.634 45.5112 105.374 45.2712 104.294 44.7912C103.214 44.2872 102.374 43.6032 101.774 42.7392C101.198 41.8512 100.91 40.8552 100.91 39.7512C100.91 38.6712 101.162 37.6992 101.666 36.8352C102.194 35.9712 103.046 35.2872 104.222 34.7832C105.398 34.2792 106.958 34.0272 108.902 34.0272H114.482V37.0152H109.226C107.69 37.0152 106.658 37.2672 106.13 37.7712C105.602 38.2512 105.338 38.8512 105.338 39.5712C105.338 40.3872 105.662 41.0352 106.31 41.5152C106.958 41.9952 107.858 42.2352 109.01 42.2352C110.114 42.2352 111.098 41.9832 111.962 41.4792C112.85 40.9752 113.486 40.2312 113.87 39.2472L114.626 41.9472C114.194 43.0752 113.414 43.9512 112.286 44.5752C111.182 45.1992 109.778 45.5112 108.074 45.5112ZM124.145 45.2592V26.0352H128.645V45.2592H124.145ZM126.413 22.8672C125.573 22.8672 124.877 22.6032 124.325 22.0752C123.797 21.5472 123.533 20.9112 123.533 20.1672C123.533 19.3992 123.797 18.7632 124.325 18.2592C124.877 17.7312 125.573 17.4672 126.413 17.4672C127.253 17.4672 127.937 17.7192 128.465 18.2232C129.017 18.7032 129.293 19.3152 129.293 20.0592C129.293 20.8512 129.029 21.5232 128.501 22.0752C127.973 22.6032 127.277 22.8672 126.413 22.8672ZM141.787 45.5112C139.675 45.5112 138.043 44.9712 136.891 43.8912C135.739 42.7872 135.163 41.1672 135.163 39.0312V21.7872H139.663V38.9232C139.663 39.8352 139.891 40.5432 140.347 41.0472C140.827 41.5512 141.487 41.8032 142.327 41.8032C143.335 41.8032 144.175 41.5392 144.847 41.0112L146.107 44.2152C145.579 44.6472 144.931 44.9712 144.163 45.1872C143.395 45.4032 142.603 45.5112 141.787 45.5112ZM131.995 29.7792V26.1792H144.811V29.7792H131.995ZM160.717 25.8192C162.253 25.8192 163.621 26.1192 164.821 26.7192C166.045 27.3192 167.005 28.2432 167.701 29.4912C168.397 30.7152 168.745 32.2992 168.745 34.2432V45.2592H164.245V34.8192C164.245 33.1152 163.837 31.8432 163.021 31.0032C162.229 30.1632 161.113 29.7432 159.673 29.7432C158.617 29.7432 157.681 29.9592 156.865 30.3912C156.049 30.8232 155.413 31.4712 154.957 32.3352C154.525 33.1752 154.309 34.2432 154.309 35.5392V45.2592H149.809V18.5472H154.309V31.2192L153.337 29.6352C154.009 28.4112 154.981 27.4752 156.253 26.8272C157.549 26.1552 159.037 25.8192 160.717 25.8192ZM181.271 45.2592L192.611 20.0592H197.219L208.595 45.2592H203.699L193.943 22.5432H195.815L186.095 45.2592H181.271ZM186.491 39.4272L187.751 35.7552H201.359L202.619 39.4272H186.491ZM222.276 25.8192C223.812 25.8192 225.18 26.1192 226.38 26.7192C227.604 27.3192 228.564 28.2432 229.26 29.4912C229.956 30.7152 230.304 32.2992 230.304 34.2432V45.2592H225.804V34.8192C225.804 33.1152 225.396 31.8432 224.58 31.0032C223.788 30.1632 222.672 29.7432 221.232 29.7432C220.176 29.7432 219.24 29.9592 218.424 30.3912C217.608 30.8232 216.972 31.4712 216.516 32.3352C216.084 33.1752 215.868 34.2432 215.868 35.5392V45.2592H211.368V26.0352H215.652V31.2192L214.896 29.6352C215.568 28.4112 216.54 27.4752 217.812 26.8272C219.108 26.1552 220.596 25.8192 222.276 25.8192ZM244.759 52.4952C242.983 52.4952 241.243 52.2552 239.539 51.7752C237.859 51.3192 236.479 50.6472 235.399 49.7592L237.415 46.3752C238.255 47.0712 239.311 47.6232 240.583 48.0312C241.879 48.4632 243.187 48.6792 244.507 48.6792C246.619 48.6792 248.167 48.1872 249.151 47.2032C250.135 46.2432 250.627 44.7912 250.627 42.8472V39.4272L250.987 35.0712L250.843 30.7152V26.0352H255.127V42.3432C255.127 45.8232 254.239 48.3792 252.463 50.0112C250.687 51.6672 248.119 52.4952 244.759 52.4952ZM244.183 44.3952C242.359 44.3952 240.703 44.0112 239.215 43.2432C237.751 42.4512 236.587 41.3592 235.723 39.9672C234.883 38.5752 234.463 36.9432 234.463 35.0712C234.463 33.2232 234.883 31.6032 235.723 30.2112C236.587 28.8192 237.751 27.7392 239.215 26.9712C240.703 26.2032 242.359 25.8192 244.183 25.8192C245.815 25.8192 247.279 26.1432 248.575 26.7912C249.871 27.4392 250.903 28.4472 251.671 29.8152C252.463 31.1832 252.859 32.9352 252.859 35.0712C252.859 37.2072 252.463 38.9712 251.671 40.3632C250.903 41.7312 249.871 42.7512 248.575 43.4232C247.279 44.0712 245.815 44.3952 244.183 44.3952ZM244.867 40.5792C245.995 40.5792 247.003 40.3512 247.891 39.8952C248.779 39.4152 249.463 38.7672 249.943 37.9512C250.447 37.1112 250.699 36.1512 250.699 35.0712C250.699 33.9912 250.447 33.0432 249.943 32.2272C249.463 31.3872 248.779 30.7512 247.891 30.3192C247.003 29.8632 245.995 29.6352 244.867 29.6352C243.739 29.6352 242.719 29.8632 241.807 30.3192C240.919 30.7512 240.223 31.3872 239.719 32.2272C239.239 33.0432 238.999 33.9912 238.999 35.0712C238.999 36.1512 239.239 37.1112 239.719 37.9512C240.223 38.7672 240.919 39.4152 241.807 39.8952C242.719 40.3512 243.739 40.5792 244.867 40.5792ZM270.079 45.5112C267.943 45.5112 266.071 45.0912 264.463 44.2512C262.879 43.3872 261.643 42.2112 260.755 40.7232C259.891 39.2352 259.459 37.5432 259.459 35.6472C259.459 33.7272 259.879 32.0352 260.719 30.5712C261.583 29.0832 262.759 27.9192 264.247 27.0792C265.759 26.2392 267.475 25.8192 269.395 25.8192C271.267 25.8192 272.935 26.2272 274.399 27.0432C275.863 27.8592 277.015 29.0112 277.855 30.4992C278.695 31.9872 279.115 33.7392 279.115 35.7552C279.115 35.9472 279.103 36.1632 279.079 36.4032C279.079 36.6432 279.067 36.8712 279.043 37.0872H263.023V34.0992H276.667L274.903 35.0352C274.927 33.9312 274.699 32.9592 274.219 32.1192C273.739 31.2792 273.079 30.6192 272.239 30.1392C271.423 29.6592 270.475 29.4192 269.395 29.4192C268.291 29.4192 267.319 29.6592 266.479 30.1392C265.663 30.6192 265.015 31.2912 264.535 32.1552C264.079 32.9952 263.851 33.9912 263.851 35.1432V35.8632C263.851 37.0152 264.115 38.0352 264.643 38.9232C265.171 39.8112 265.915 40.4952 266.875 40.9752C267.835 41.4552 268.939 41.6952 270.187 41.6952C271.267 41.6952 272.239 41.5272 273.103 41.1912C273.967 40.8552 274.735 40.3272 275.407 39.6072L277.819 42.3792C276.955 43.3872 275.863 44.1672 274.543 44.7192C273.247 45.2472 271.759 45.5112 270.079 45.5112ZM283.438 45.2592V18.5472H287.938V45.2592H283.438ZM299.784 45.5112C298.176 45.5112 296.628 45.3072 295.14 44.8992C293.676 44.4672 292.512 43.9512 291.648 43.3512L293.376 39.9312C294.24 40.4832 295.272 40.9392 296.472 41.2992C297.672 41.6592 298.872 41.8392 300.072 41.8392C301.488 41.8392 302.508 41.6472 303.132 41.2632C303.78 40.8792 304.104 40.3632 304.104 39.7152C304.104 39.1872 303.888 38.7912 303.456 38.5272C303.024 38.2392 302.46 38.0232 301.764 37.8792C301.068 37.7352 300.288 37.6032 299.424 37.4832C298.584 37.3632 297.732 37.2072 296.868 37.0152C296.028 36.7992 295.26 36.4992 294.564 36.1152C293.868 35.7072 293.304 35.1672 292.872 34.4952C292.44 33.8232 292.224 32.9352 292.224 31.8312C292.224 30.6072 292.572 29.5512 293.268 28.6632C293.964 27.7512 294.936 27.0552 296.184 26.5752C297.456 26.0712 298.956 25.8192 300.684 25.8192C301.98 25.8192 303.288 25.9632 304.608 26.2512C305.928 26.5392 307.02 26.9472 307.884 27.4752L306.156 30.8952C305.244 30.3432 304.32 29.9712 303.384 29.7792C302.472 29.5632 301.56 29.4552 300.648 29.4552C299.28 29.4552 298.26 29.6592 297.588 30.0672C296.94 30.4752 296.616 30.9912 296.616 31.6152C296.616 32.1912 296.832 32.6232 297.264 32.9112C297.696 33.1992 298.26 33.4272 298.956 33.5952C299.652 33.7632 300.42 33.9072 301.26 34.0272C302.124 34.1232 302.976 34.2792 303.816 34.4952C304.656 34.7112 305.424 35.0112 306.12 35.3952C306.84 35.7552 307.416 36.2712 307.848 36.9432C308.28 37.6152 308.496 38.4912 308.496 39.5712C308.496 40.7712 308.136 41.8152 307.416 42.7032C306.72 43.5912 305.724 44.2872 304.428 44.7912C303.132 45.2712 301.584 45.5112 299.784 45.5112Z" fill="#758E39"/>
<path d="M67.28 63.4949V63.8549H70.46V65.6949H67.28V74.2549H65.32V65.6949H63.48V63.8549H65.32V63.4949C65.32 60.5149 66.56 59.2149 69.44 59.2149H70.58V61.0549H69.54C67.96 61.0549 67.28 61.7949 67.28 63.4949ZM72.9539 64.9749C73.7939 64.1149 75.1339 63.6949 76.9939 63.6949C78.8539 63.6949 80.1939 64.1149 81.0539 64.9749C81.8939 65.8349 82.3139 67.1949 82.3139 69.0549C82.3139 72.8149 80.7339 74.4149 76.9939 74.4149C73.2539 74.4149 71.6739 72.8149 71.6739 69.0549C71.6739 67.1949 72.0939 65.8349 72.9539 64.9749ZM73.6339 69.0549C73.6339 71.5149 74.6539 72.5749 76.9939 72.5749C79.3339 72.5749 80.3539 71.5149 80.3539 69.0549C80.3539 66.5749 79.3739 65.5349 76.9939 65.5349C74.6139 65.5349 73.6339 66.5749 73.6339 69.0549ZM86.6744 69.0549V74.2549H84.7144V63.8549H86.6744V65.1949C87.3544 64.1949 88.5344 63.6949 90.2344 63.6949H91.1344V65.5349H89.6744C87.5344 65.5349 86.6744 66.5749 86.6744 69.0549ZM99.4383 68.0789H102.318C103.118 70.7349 105.39 71.8549 109.742 71.8549C114.126 71.8549 116.334 70.6709 116.334 68.3029C116.334 67.2149 115.79 66.3509 114.702 65.7109C113.582 65.1029 111.662 64.5589 108.91 64.1429C105.486 63.5989 103.086 62.8629 101.774 61.9349C100.43 61.0069 99.7583 59.6629 99.7583 57.8389C99.7583 53.7109 102.83 51.6309 108.974 51.6309C114.958 51.6309 117.87 53.5189 118.67 58.0309H115.758C115.086 55.4389 112.91 54.2549 108.782 54.2549C104.59 54.2549 102.51 55.4069 102.51 57.6789C102.51 58.7029 103.022 59.4709 104.046 60.0149C105.038 60.5589 106.83 61.0709 109.422 61.4869C113.07 62.0949 115.598 62.8949 117.006 63.8229C118.382 64.7829 119.086 66.1909 119.086 68.0789C119.086 72.3349 115.886 74.4789 109.454 74.4789C103.31 74.4789 100.302 72.5589 99.4383 68.0789ZM124.269 72.4309C122.925 71.0869 122.253 68.9109 122.253 65.9349C122.253 62.9589 122.925 60.7829 124.269 59.4069C125.581 58.0629 127.725 57.3909 130.701 57.3909C136.621 57.3909 139.021 59.9509 139.021 65.9349V66.7029H124.941C125.165 70.5109 126.925 72.1749 130.733 72.1749C133.453 72.1749 135.213 71.2149 135.949 69.3269H138.669C137.773 73.1669 134.957 74.4789 130.701 74.4789C127.725 74.4789 125.581 73.8069 124.269 72.4309ZM130.733 59.6949C127.117 59.6949 125.261 61.1349 124.973 64.6869H136.397C136.109 61.1349 134.317 59.6949 130.733 59.6949ZM143.244 74.2549V57.6149H145.9V60.1749C147.02 58.3189 149.132 57.3909 152.236 57.3909C157.132 57.3909 159.308 59.5669 159.308 64.6549V74.2549H156.652V64.6549C156.652 61.3269 155.084 59.8549 151.532 59.8549C147.532 59.8549 145.9 61.6149 145.9 65.9349V74.2549H143.244ZM167.057 74.2549H164.401V57.6149H167.057V74.2549ZM164.305 54.0949C164.017 53.8069 163.889 53.3589 163.889 52.6869C163.889 52.0149 164.017 51.5349 164.305 51.2469C164.593 50.9589 165.041 50.8309 165.713 50.8309C166.385 50.8309 166.865 50.9589 167.153 51.2469C167.441 51.5349 167.601 52.0149 167.601 52.6869C167.601 53.3589 167.441 53.8069 167.153 54.0949C166.865 54.3829 166.385 54.5429 165.713 54.5429C165.041 54.5429 164.593 54.3829 164.305 54.0949ZM173.3 59.4069C174.644 58.0629 176.788 57.3909 179.764 57.3909C182.74 57.3909 184.884 58.0629 186.228 59.4069C187.54 60.7829 188.212 62.9589 188.212 65.9349C188.212 68.9109 187.54 71.0869 186.228 72.4309C184.884 73.8069 182.74 74.4789 179.764 74.4789C176.788 74.4789 174.644 73.8069 173.3 72.4309C171.956 71.0869 171.284 68.9109 171.284 65.9349C171.284 62.9589 171.956 60.7829 173.3 59.4069ZM173.908 65.9349C173.908 70.1589 175.668 72.0149 179.764 72.0149C183.828 72.0149 185.588 70.1589 185.588 65.9349C185.588 61.6789 183.86 59.8549 179.764 59.8549C175.668 59.8549 173.908 61.6789 173.908 65.9349ZM195.088 65.9349V74.2549H192.432V57.6149H195.088V60.0789C196.176 58.2869 198.192 57.3909 201.168 57.3909H202.512V59.8549H200.432C196.592 59.8549 195.088 61.6149 195.088 65.9349ZM204.659 69.3269H207.283C207.827 71.2789 209.459 72.1749 212.627 72.1749C215.795 72.1749 217.331 71.2789 217.331 69.7749C217.331 68.3989 215.827 67.6309 212.147 67.0869C206.899 66.3509 204.979 65.0069 204.979 62.0629C204.979 58.9589 207.315 57.3909 211.955 57.3909C216.691 57.3909 218.995 58.9589 219.635 62.5429H217.011C216.403 60.5269 214.867 59.6949 211.891 59.6949C208.979 59.6949 207.539 60.5909 207.539 61.9989C207.539 63.3109 209.043 64.0469 212.595 64.6549C215.315 65.0709 217.235 65.6469 218.291 66.3509C219.347 67.0869 219.891 68.1429 219.891 69.5829C219.891 72.8469 217.459 74.4789 212.563 74.4789C207.731 74.4789 205.299 72.9109 204.659 69.3269Z" fill="#610E0E"/>
</svg>
