<svg width="428" height="79" viewBox="0 0 428 79" fill="none" xmlns="http://www.w3.org/2000/svg">
<mask id="path-1-inside-1_241_1015" fill="white">
<path fill-rule="evenodd" clip-rule="evenodd" d="M7.76063 43.9646C9.07286 44.8178 10.6063 45.2692 12.1722 45.2634C12.8491 45.264 13.5242 45.1929 14.1861 45.0513C17.9397 44.2438 21.7421 41.274 25.4968 36.2217C26.2827 38.0378 27.3839 39.3366 28.793 40.0942C30.3875 40.9547 32.3927 41.13 34.7546 40.6246C35.3252 40.5015 35.8733 40.3397 36.3966 40.1409C37.0459 40.9278 37.7884 41.7095 38.6227 42.4846C35.4912 42.7054 32.9364 43.3797 31.0168 44.4945C28.8457 45.7554 27.3738 47.3789 26.6399 49.327C25.5311 52.2655 26.1825 55.2192 28.5758 58.1219C26.2584 57.9867 24.5285 58.2064 23.3232 58.7865C21.9151 59.4683 20.9439 60.4955 20.4367 61.8494C19.9034 63.2597 20.0541 64.8594 20.8876 66.6008C21.6951 68.3076 23.4402 70.0642 26.0774 71.8208C28.668 73.5482 31.7279 75.0808 35.1715 76.3796C39.751 78.1048 44.1149 78.9771 48.146 78.9771H48.1829C50.9024 78.9587 53.3792 78.252 55.5741 76.8536C57.769 75.4553 59.3364 73.5417 60.235 71.1671C61.643 67.4277 61.0739 64.0065 58.5462 61.0009C56.787 58.8644 53.0854 56.7561 47.2214 54.5514L40.1152 51.9733C38.5327 51.3748 37.4965 50.6691 37.0293 49.8595C36.8138 49.5034 36.684 49.1022 36.6504 48.6875C36.6167 48.2728 36.68 47.8559 36.8353 47.4698C37.2027 46.4881 37.8672 45.8063 38.8947 45.3733C39.9223 44.9404 40.9683 44.935 42.075 45.3506C46.6513 47.302 46.842 47.3735 46.906 47.3973C48.96 48.1679 51.5582 48.4904 54.6192 48.3454C57.6975 48.2014 60.4311 47.3994 62.7399 45.9415C65.0692 44.4772 66.7808 42.3299 67.8278 39.5559C68.4494 37.9209 68.7125 36.1719 68.5996 34.4268C68.5096 33.351 68.1671 32.0803 67.5807 30.6387L74.3075 33.167L76.2987 27.8863L63.1204 22.9336C60.8376 20.8469 58.3945 19.3057 55.8581 18.3489C51.0054 16.5307 46.4475 16.4213 42.3091 18.0243C39.5378 19.0966 37.3547 20.6726 35.7824 22.7295L33.8192 13.6305C32.8837 9.28067 32.0957 6.60843 31.4107 5.45793C30.3148 3.66561 28.444 2.17309 25.8382 1.01502C23.2325 -0.143064 19.9677 -0.309741 16.1404 0.51282C13.039 1.16969 10.0696 2.34034 7.35524 3.97624C4.6346 5.62136 2.62176 7.59226 1.38284 9.84239C0.128748 12.1153 -0.27447 14.3557 0.18186 16.4813C0.522211 18.0496 1.47389 19.2856 3.01523 20.1612C4.53922 21.0281 6.26699 21.2641 8.15193 20.8561C9.9263 20.474 11.2704 19.6395 12.1624 18.3472C13.0545 17.055 13.3439 15.6404 13.0187 14.1435C12.7499 12.914 11.899 11.7635 10.4737 10.7212C9.38001 9.93764 9.06784 9.38457 8.99738 9.05988C8.88899 8.54361 9.0841 8.01653 9.60113 7.4613C10.5441 6.46773 11.8904 5.77505 13.6116 5.40489C14.5897 5.18203 15.6117 5.25051 16.5512 5.60188C17.478 5.95255 18.1652 6.445 18.5987 7.06842C18.9098 7.51541 19.4442 8.8077 20.2246 12.4302L21.017 16.1101C13.3276 21.894 8.38497 26.3261 6.32552 29.2851C4.1967 32.3427 3.45855 35.4771 4.13167 38.6028C4.6346 40.9406 5.85401 42.7448 7.76063 43.9646ZM16.4298 27.3337C17.4726 24.9461 19.299 22.4806 21.8635 19.9978L24.4779 32.1219C23.1111 33.9662 21.7963 35.0355 20.5682 35.3028C19.4323 35.5442 18.5142 35.4035 17.7555 34.8623C16.7116 34.135 16.0797 33.2042 15.8228 32.0137C15.5096 30.5634 15.7144 28.9886 16.4298 27.3337ZM31.6347 61.7401C31.7355 61.7298 31.8368 61.7248 31.9381 61.725C32.9939 61.725 34.7715 62.1904 37.2298 63.1114L37.6743 63.2749C43.8125 65.5953 47.5921 67.1842 48.9134 68.0035C50.2044 68.8012 51.0596 69.7082 51.452 70.6909C51.6502 71.2101 51.6409 71.7856 51.4259 72.2981C50.807 73.9378 49.3513 74.8156 46.9721 74.9823C44.4845 75.1533 41.3498 74.5288 37.6276 73.1294C33.2692 71.494 30.4868 69.8326 29.3552 68.1951C28.2431 66.5835 27.9298 65.1992 28.3937 63.9654C28.8739 62.6936 29.9383 61.9653 31.6347 61.7401ZM50.8417 22.8849C51.8779 22.1695 52.8643 21.8134 53.8398 21.8134C54.3415 21.8161 54.8384 21.91 55.3064 22.0905C56.7437 22.6317 57.6119 23.609 57.9598 25.0853C58.5018 27.185 57.8785 30.6257 56.1171 35.3089C54.553 39.4595 52.9738 42.0733 51.4205 43.0788C49.8889 44.0702 48.4159 44.2748 46.9168 43.7131C45.5836 43.213 44.7046 42.1166 44.2265 40.3579C43.742 38.5666 44.2396 35.6909 45.7039 31.8076C47.5206 26.9869 49.2494 23.9846 50.8417 22.8849Z"/>
</mask>
<path fill-rule="evenodd" clip-rule="evenodd" d="M7.76063 43.9646C9.07286 44.8178 10.6063 45.2692 12.1722 45.2634C12.8491 45.264 13.5242 45.1929 14.1861 45.0513C17.9397 44.2438 21.7421 41.274 25.4968 36.2217C26.2827 38.0378 27.3839 39.3366 28.793 40.0942C30.3875 40.9547 32.3927 41.13 34.7546 40.6246C35.3252 40.5015 35.8733 40.3397 36.3966 40.1409C37.0459 40.9278 37.7884 41.7095 38.6227 42.4846C35.4912 42.7054 32.9364 43.3797 31.0168 44.4945C28.8457 45.7554 27.3738 47.3789 26.6399 49.327C25.5311 52.2655 26.1825 55.2192 28.5758 58.1219C26.2584 57.9867 24.5285 58.2064 23.3232 58.7865C21.9151 59.4683 20.9439 60.4955 20.4367 61.8494C19.9034 63.2597 20.0541 64.8594 20.8876 66.6008C21.6951 68.3076 23.4402 70.0642 26.0774 71.8208C28.668 73.5482 31.7279 75.0808 35.1715 76.3796C39.751 78.1048 44.1149 78.9771 48.146 78.9771H48.1829C50.9024 78.9587 53.3792 78.252 55.5741 76.8536C57.769 75.4553 59.3364 73.5417 60.235 71.1671C61.643 67.4277 61.0739 64.0065 58.5462 61.0009C56.787 58.8644 53.0854 56.7561 47.2214 54.5514L40.1152 51.9733C38.5327 51.3748 37.4965 50.6691 37.0293 49.8595C36.8138 49.5034 36.684 49.1022 36.6504 48.6875C36.6167 48.2728 36.68 47.8559 36.8353 47.4698C37.2027 46.4881 37.8672 45.8063 38.8947 45.3733C39.9223 44.9404 40.9683 44.935 42.075 45.3506C46.6513 47.302 46.842 47.3735 46.906 47.3973C48.96 48.1679 51.5582 48.4904 54.6192 48.3454C57.6975 48.2014 60.4311 47.3994 62.7399 45.9415C65.0692 44.4772 66.7808 42.3299 67.8278 39.5559C68.4494 37.9209 68.7125 36.1719 68.5996 34.4268C68.5096 33.351 68.1671 32.0803 67.5807 30.6387L74.3075 33.167L76.2987 27.8863L63.1204 22.9336C60.8376 20.8469 58.3945 19.3057 55.8581 18.3489C51.0054 16.5307 46.4475 16.4213 42.3091 18.0243C39.5378 19.0966 37.3547 20.6726 35.7824 22.7295L33.8192 13.6305C32.8837 9.28067 32.0957 6.60843 31.4107 5.45793C30.3148 3.66561 28.444 2.17309 25.8382 1.01502C23.2325 -0.143064 19.9677 -0.309741 16.1404 0.51282C13.039 1.16969 10.0696 2.34034 7.35524 3.97624C4.6346 5.62136 2.62176 7.59226 1.38284 9.84239C0.128748 12.1153 -0.27447 14.3557 0.18186 16.4813C0.522211 18.0496 1.47389 19.2856 3.01523 20.1612C4.53922 21.0281 6.26699 21.2641 8.15193 20.8561C9.9263 20.474 11.2704 19.6395 12.1624 18.3472C13.0545 17.055 13.3439 15.6404 13.0187 14.1435C12.7499 12.914 11.899 11.7635 10.4737 10.7212C9.38001 9.93764 9.06784 9.38457 8.99738 9.05988C8.88899 8.54361 9.0841 8.01653 9.60113 7.4613C10.5441 6.46773 11.8904 5.77505 13.6116 5.40489C14.5897 5.18203 15.6117 5.25051 16.5512 5.60188C17.478 5.95255 18.1652 6.445 18.5987 7.06842C18.9098 7.51541 19.4442 8.8077 20.2246 12.4302L21.017 16.1101C13.3276 21.894 8.38497 26.3261 6.32552 29.2851C4.1967 32.3427 3.45855 35.4771 4.13167 38.6028C4.6346 40.9406 5.85401 42.7448 7.76063 43.9646ZM16.4298 27.3337C17.4726 24.9461 19.299 22.4806 21.8635 19.9978L24.4779 32.1219C23.1111 33.9662 21.7963 35.0355 20.5682 35.3028C19.4323 35.5442 18.5142 35.4035 17.7555 34.8623C16.7116 34.135 16.0797 33.2042 15.8228 32.0137C15.5096 30.5634 15.7144 28.9886 16.4298 27.3337ZM31.6347 61.7401C31.7355 61.7298 31.8368 61.7248 31.9381 61.725C32.9939 61.725 34.7715 62.1904 37.2298 63.1114L37.6743 63.2749C43.8125 65.5953 47.5921 67.1842 48.9134 68.0035C50.2044 68.8012 51.0596 69.7082 51.452 70.6909C51.6502 71.2101 51.6409 71.7856 51.4259 72.2981C50.807 73.9378 49.3513 74.8156 46.9721 74.9823C44.4845 75.1533 41.3498 74.5288 37.6276 73.1294C33.2692 71.494 30.4868 69.8326 29.3552 68.1951C28.2431 66.5835 27.9298 65.1992 28.3937 63.9654C28.8739 62.6936 29.9383 61.9653 31.6347 61.7401ZM50.8417 22.8849C51.8779 22.1695 52.8643 21.8134 53.8398 21.8134C54.3415 21.8161 54.8384 21.91 55.3064 22.0905C56.7437 22.6317 57.6119 23.609 57.9598 25.0853C58.5018 27.185 57.8785 30.6257 56.1171 35.3089C54.553 39.4595 52.9738 42.0733 51.4205 43.0788C49.8889 44.0702 48.4159 44.2748 46.9168 43.7131C45.5836 43.213 44.7046 42.1166 44.2265 40.3579C43.742 38.5666 44.2396 35.6909 45.7039 31.8076C47.5206 26.9869 49.2494 23.9846 50.8417 22.8849Z" fill="#1A2124"/>
<path d="M12.1722 45.2634L12.1731 44.2634L12.1684 44.2634L12.1722 45.2634ZM7.76063 43.9646L8.30574 43.1262L8.29954 43.1222L7.76063 43.9646ZM14.1861 45.0513L14.3954 46.0291L14.3964 46.0289L14.1861 45.0513ZM25.4968 36.2217L26.4146 35.8246L25.727 34.2355L24.6942 35.6252L25.4968 36.2217ZM28.793 40.0942L29.2679 39.2142L29.2666 39.2135L28.793 40.0942ZM34.7546 40.6246L34.9638 41.6024L34.9655 41.6021L34.7546 40.6246ZM36.3966 40.1409L37.1679 39.5044L36.7116 38.9514L36.0414 39.2061L36.3966 40.1409ZM38.6227 42.4846L38.693 43.4821L40.9912 43.3201L39.3033 41.752L38.6227 42.4846ZM31.0168 44.4945L30.5146 43.6297L30.5146 43.6297L31.0168 44.4945ZM26.6399 49.327L27.5756 49.6801L27.5758 49.6795L26.6399 49.327ZM28.5758 58.1219L28.5175 59.1202L30.8051 59.2538L29.3474 57.4858L28.5758 58.1219ZM23.3232 58.7865L22.8895 57.8854L22.8873 57.8865L23.3232 58.7865ZM20.4367 61.8494L21.372 62.2032L21.3731 62.2003L20.4367 61.8494ZM20.8876 66.6008L21.7915 66.1731L21.7896 66.1691L20.8876 66.6008ZM26.0774 71.8208L26.6322 70.9888L26.6318 70.9886L26.0774 71.8208ZM35.1715 76.3796L34.8186 77.3152L34.8189 77.3154L35.1715 76.3796ZM48.1829 78.9771V79.9771L48.1896 79.9771L48.1829 78.9771ZM55.5741 76.8536L55.0368 76.0102L55.5741 76.8536ZM60.235 71.1671L61.1702 71.521L61.1708 71.5195L60.235 71.1671ZM58.5462 61.0009L57.7742 61.6366L57.7809 61.6445L58.5462 61.0009ZM47.2214 54.5514L47.5734 53.6153L47.5625 53.6113L47.2214 54.5514ZM40.1152 51.9733L39.7615 52.9087L39.7742 52.9133L40.1152 51.9733ZM37.0293 49.8595L37.8955 49.3597L37.8902 49.3507L37.8848 49.3417L37.0293 49.8595ZM36.6504 48.6875L35.6536 48.7684V48.7684L36.6504 48.6875ZM36.8353 47.4698L37.7631 47.8429L37.7676 47.8317L37.7718 47.8203L36.8353 47.4698ZM38.8947 45.3733L39.283 46.2949H39.283L38.8947 45.3733ZM42.075 45.3506L42.4672 44.4307L42.4471 44.4221L42.4265 44.4144L42.075 45.3506ZM46.906 47.3973L47.2573 46.461L47.2549 46.4601L46.906 47.3973ZM54.6192 48.3454L54.5725 47.3465L54.5718 47.3465L54.6192 48.3454ZM62.7399 45.9415L62.2077 45.0949L62.206 45.096L62.7399 45.9415ZM67.8278 39.5559L66.8931 39.2005L66.8923 39.2027L67.8278 39.5559ZM68.5996 34.4268L69.5975 34.3622L69.5969 34.3528L69.5961 34.3434L68.5996 34.4268ZM67.5807 30.6387L67.9325 29.7026L65.7933 28.8986L66.6544 31.0154L67.5807 30.6387ZM74.3075 33.167L73.9557 34.103L74.8907 34.4545L75.2432 33.5198L74.3075 33.167ZM76.2987 27.8863L77.2343 28.2392L77.5875 27.3024L76.6505 26.9503L76.2987 27.8863ZM63.1204 22.9336L62.4457 23.6717L62.588 23.8019L62.7686 23.8697L63.1204 22.9336ZM55.8581 18.3489L56.211 17.4133L56.209 17.4125L55.8581 18.3489ZM42.3091 18.0243L42.67 18.9569L42.6703 18.9568L42.3091 18.0243ZM35.7824 22.7295L34.8049 22.9404L35.2616 25.0573L36.5768 23.3368L35.7824 22.7295ZM33.8192 13.6305L32.8415 13.8407L32.8416 13.8414L33.8192 13.6305ZM31.4107 5.45793L32.27 4.94629L32.2639 4.93629L31.4107 5.45793ZM25.8382 1.01502L26.2444 0.1012L25.8382 1.01502ZM16.1404 0.51282L16.3476 1.49112L16.3505 1.4905L16.1404 0.51282ZM7.35524 3.97624L6.83905 3.11976L6.8378 3.12051L7.35524 3.97624ZM1.38284 9.84239L2.25841 10.3255L2.25884 10.3247L1.38284 9.84239ZM0.18186 16.4813L-0.795866 16.6912L-0.795391 16.6934L0.18186 16.4813ZM3.01523 20.1612L3.50968 19.292L3.50917 19.2917L3.01523 20.1612ZM8.15193 20.8561L7.94143 19.8785L7.94035 19.8787L8.15193 20.8561ZM12.1624 18.3472L11.3395 17.7792L12.1624 18.3472ZM13.0187 14.1435L13.9959 13.9312L13.9957 13.9299L13.0187 14.1435ZM10.4737 10.7212L11.064 9.91399L11.0561 9.90835L10.4737 10.7212ZM8.99738 9.05988L8.0187 9.26536L8.02012 9.27193L8.99738 9.05988ZM9.60113 7.4613L8.87577 6.77285L8.86929 6.77981L9.60113 7.4613ZM13.6116 5.40489L13.8219 6.38262L13.8338 6.3799L13.6116 5.40489ZM16.5512 5.60188L16.9051 4.66659L16.9015 4.66524L16.5512 5.60188ZM18.5987 7.06842L17.7778 7.63938L17.778 7.63964L18.5987 7.06842ZM20.2246 12.4302L21.2022 12.2197L21.2022 12.2196L20.2246 12.4302ZM21.017 16.1101L21.6181 16.9093L22.1292 16.5248L21.9946 15.8996L21.017 16.1101ZM6.32552 29.2851L7.14619 29.8565L7.1463 29.8564L6.32552 29.2851ZM4.13167 38.6028L5.1093 38.3925L5.10925 38.3923L4.13167 38.6028ZM21.8635 19.9978L22.841 19.787L22.4615 18.027L21.1679 19.2793L21.8635 19.9978ZM16.4298 27.3337L15.5134 26.9335L15.5119 26.9369L16.4298 27.3337ZM24.4779 32.1219L25.2813 32.7173L25.5509 32.3536L25.4555 31.9111L24.4779 32.1219ZM20.5682 35.3028L20.7761 36.281L20.7809 36.2799L20.5682 35.3028ZM17.7555 34.8623L18.3362 34.0481L18.3271 34.0419L17.7555 34.8623ZM15.8228 32.0137L16.8003 31.8027L16.8003 31.8025L15.8228 32.0137ZM31.9381 61.725L31.9362 62.725H31.9381V61.725ZM31.6347 61.7401L31.5331 60.7453L31.5181 60.7468L31.5031 60.7488L31.6347 61.7401ZM37.2298 63.1114L36.879 64.0479L36.8847 64.05L37.2298 63.1114ZM37.6743 63.2749L38.0279 62.3394L38.0194 62.3363L37.6743 63.2749ZM48.9134 68.0035L48.3864 68.8534L48.3878 68.8542L48.9134 68.0035ZM51.452 70.6909L52.3862 70.3342L52.3835 70.3271L52.3807 70.3201L51.452 70.6909ZM51.4259 72.2981L50.5037 71.9114L50.4968 71.9281L50.4904 71.945L51.4259 72.2981ZM46.9721 74.9823L47.0407 75.9799L47.042 75.9798L46.9721 74.9823ZM37.6276 73.1294L37.9796 72.1933L37.979 72.1931L37.6276 73.1294ZM29.3552 68.1951L28.5321 68.763L28.5325 68.7636L29.3552 68.1951ZM28.3937 63.9654L27.4582 63.6121L27.4577 63.6134L28.3937 63.9654ZM53.8398 21.8134L53.8451 20.8134H53.8398V21.8134ZM50.8417 22.8849L50.2736 22.062L50.2734 22.0621L50.8417 22.8849ZM55.3064 22.0905L54.9464 23.0235L54.954 23.0264L55.3064 22.0905ZM57.9598 25.0853L56.9865 25.3147L56.9889 25.325L56.9915 25.3352L57.9598 25.0853ZM56.1171 35.3089L57.0529 35.6615L57.0531 35.6609L56.1171 35.3089ZM51.4205 43.0788L51.9639 43.9183L51.9639 43.9183L51.4205 43.0788ZM46.9168 43.7131L46.5657 44.6494L46.5659 44.6495L46.9168 43.7131ZM44.2265 40.3579L43.2612 40.619L43.2616 40.6201L44.2265 40.3579ZM45.7039 31.8076L46.6396 32.1604L46.6397 32.1602L45.7039 31.8076ZM12.1684 44.2634C10.7972 44.2685 9.45458 43.8732 8.30572 43.1262L7.21554 44.803C8.69115 45.7624 10.4153 46.27 12.1759 46.2634L12.1684 44.2634ZM13.9769 44.0734C13.384 44.2002 12.7794 44.2639 12.1731 44.2634L12.1713 46.2634C12.9188 46.2641 13.6644 46.1855 14.3954 46.0291L13.9769 44.0734ZM24.6942 35.6252C20.9975 40.5994 17.3809 43.3412 13.9758 44.0736L14.3964 46.0289C18.4985 45.1465 22.4867 41.9485 26.2994 36.8182L24.6942 35.6252ZM29.2666 39.2135C28.1007 38.5866 27.1336 37.4863 26.4146 35.8246L24.579 36.6188C25.4317 38.5894 26.6672 40.0866 28.3195 40.975L29.2666 39.2135ZM34.5453 39.6467C32.3359 40.1195 30.591 39.9282 29.2679 39.2142L28.3181 40.9743C30.1839 41.9812 32.4495 42.1405 34.9638 41.6024L34.5453 39.6467ZM36.0414 39.2061C35.5666 39.3865 35.0668 39.5342 34.5437 39.6471L34.9655 41.6021C35.5837 41.4687 36.1801 41.2929 36.7518 41.0756L36.0414 39.2061ZM35.6253 40.7773C36.3057 41.6019 37.0791 42.4155 37.942 43.2172L39.3033 41.752C38.4977 41.0035 37.7862 40.2537 37.1679 39.5044L35.6253 40.7773ZM38.5523 41.4871C35.328 41.7144 32.6094 42.4132 30.5146 43.6297L31.519 45.3592C33.2635 44.3462 35.6545 43.6964 38.693 43.4821L38.5523 41.4871ZM30.5146 43.6297C28.1874 44.9813 26.5352 46.7683 25.7041 48.9745L27.5758 49.6795C28.2124 47.9894 29.504 46.5295 31.519 45.3592L30.5146 43.6297ZM25.7043 48.974C24.4417 52.3199 25.2367 55.6439 27.8043 58.7581L29.3474 57.4858C27.1284 54.7944 26.6205 52.2111 27.5756 49.6801L25.7043 48.974ZM28.6341 57.1236C26.2548 56.9847 24.3222 57.1959 22.8895 57.8854L23.7568 59.6876C24.7348 59.2169 26.262 58.9886 28.5175 59.1202L28.6341 57.1236ZM22.8873 57.8865C21.2706 58.6694 20.106 59.8817 19.5002 61.4986L21.3731 62.2003C21.7819 61.1093 22.5597 60.2673 23.759 59.6865L22.8873 57.8865ZM19.5013 61.4957C18.8464 63.2276 19.0687 65.1169 19.9856 67.0326L21.7896 66.1691C21.0394 64.6018 20.9604 63.2918 21.372 62.2032L19.5013 61.4957ZM19.9836 67.0285C20.9049 68.9757 22.8253 70.8561 25.523 72.6531L26.6318 70.9886C24.0552 69.2723 22.4853 67.6396 21.7915 66.1731L19.9836 67.0285ZM25.5226 72.6528C28.1868 74.4293 31.3168 75.9945 34.8186 77.3152L35.5244 75.4439C32.139 74.1671 29.1491 72.6671 26.6322 70.9888L25.5226 72.6528ZM34.8189 77.3154C39.4881 79.0743 43.9721 79.9771 48.146 79.9771V77.9771C44.2578 77.9771 40.014 77.1352 35.524 75.4438L34.8189 77.3154ZM48.146 79.9771H48.1829V77.9771H48.146V79.9771ZM48.1896 79.9771C51.0864 79.9575 53.749 79.2021 56.1114 77.697L55.0368 76.0102C53.0093 77.3019 50.7184 77.9599 48.1761 77.9771L48.1896 79.9771ZM56.1114 77.697C58.4837 76.1856 60.1934 74.1025 61.1702 71.521L59.2997 70.8132C58.4794 72.9809 57.0543 74.7249 55.0368 76.0102L56.1114 77.697ZM61.1708 71.5195C62.7036 67.4488 62.0768 63.6454 59.3115 60.3573L57.7809 61.6445C60.071 64.3676 60.5824 67.4066 59.2991 70.8147L61.1708 71.5195ZM59.3182 60.3653C57.3748 58.0051 53.4427 55.822 47.5733 53.6153L46.8695 55.4874C52.7282 57.6901 56.1992 59.7237 57.7742 61.6366L59.3182 60.3653ZM47.5625 53.6113L40.4563 51.0333L39.7742 52.9133L46.8804 55.4914L47.5625 53.6113ZM40.469 51.038C38.9439 50.4611 38.1842 49.8601 37.8955 49.3597L36.1632 50.3593C36.8088 51.4782 38.1216 52.2884 39.7615 52.9086L40.469 51.038ZM37.8848 49.3417C37.7495 49.1183 37.6682 48.8666 37.6471 48.6066L35.6536 48.7684C35.6999 49.3378 35.878 49.8886 36.1738 50.3774L37.8848 49.3417ZM37.6471 48.6066C37.626 48.3465 37.6657 48.0851 37.7631 47.8429L35.9075 47.0966C35.6943 47.6267 35.6074 48.199 35.6536 48.7684L37.6471 48.6066ZM37.7718 47.8203C38.0376 47.1103 38.4949 46.6269 39.283 46.2949L38.5065 44.4518C37.2395 44.9856 36.3679 45.8659 35.8988 47.1192L37.7718 47.8203ZM39.283 46.2949C40.0579 45.9684 40.8382 45.9543 41.7234 46.2868L42.4265 44.4144C41.0983 43.9156 39.7867 43.9124 38.5065 44.4518L39.283 46.2949ZM41.6827 46.2705C46.2397 48.2136 46.4644 48.2999 46.5571 48.3344L47.2549 46.4601C47.2197 46.447 47.0629 46.3904 42.4672 44.4307L41.6827 46.2705ZM46.5547 48.3335C48.7749 49.1665 51.5185 49.4934 54.6665 49.3442L54.5718 47.3465C51.5979 47.4874 49.1452 47.1693 47.2573 46.461L46.5547 48.3335ZM54.6659 49.3443C57.8918 49.1934 60.7986 48.3501 63.2738 46.7871L62.206 45.096C60.0637 46.4488 57.5032 47.2094 54.5725 47.3465L54.6659 49.3443ZM63.2721 46.7881C65.8007 45.1985 67.6456 42.8704 68.7634 39.909L66.8923 39.2027C65.9159 41.7893 64.3378 43.7558 62.2077 45.0949L63.2721 46.7881ZM68.7626 39.9112C69.435 38.1425 69.7197 36.2502 69.5975 34.3622L67.6017 34.4914C67.7054 36.0936 67.4638 37.6994 66.8931 39.2005L68.7626 39.9112ZM69.5961 34.3434C69.4948 33.1326 69.116 31.759 68.507 30.2619L66.6544 31.0154C67.2182 32.4016 67.5244 33.5693 67.6031 34.5101L69.5961 34.3434ZM67.2289 31.5747L73.9557 34.103L74.6593 32.2309L67.9325 29.7026L67.2289 31.5747ZM75.2432 33.5198L77.2343 28.2392L75.363 27.5335L73.3718 32.8141L75.2432 33.5198ZM76.6505 26.9503L63.4722 21.9976L62.7686 23.8697L75.9469 28.8224L76.6505 26.9503ZM63.7951 22.1956C61.4314 20.0349 58.8815 18.4206 56.211 17.4133L55.5051 19.2846C57.9075 20.1908 60.2438 21.659 62.4457 23.6717L63.7951 22.1956ZM56.209 17.4125C51.1674 15.5235 46.3528 15.3856 41.9479 17.0918L42.6703 18.9568C46.5421 17.4571 50.8434 17.5379 55.5072 19.2854L56.209 17.4125ZM41.9482 17.0916C39.0305 18.2207 36.6874 19.899 34.9879 22.1222L36.5768 23.3368C38.022 21.4463 40.0452 19.9726 42.67 18.9569L41.9482 17.0916ZM32.8416 13.8414L34.8049 22.9404L36.7599 22.5186L34.7967 13.4196L32.8416 13.8414ZM30.5515 5.96953C30.826 6.4307 31.166 7.28432 31.5618 8.62719C31.9515 9.94928 32.3764 11.6779 32.8415 13.8407L34.7968 13.4203C34.3265 11.2332 33.8897 9.45086 33.4802 8.06175C33.0769 6.69342 32.6804 5.63566 32.2699 4.94633L30.5515 5.96953ZM25.4321 1.92883C27.9169 3.03317 29.5991 4.41199 30.5575 5.97956L32.2639 4.93629C31.0306 2.91923 28.971 1.31302 26.2444 0.1012L25.4321 1.92883ZM16.3505 1.4905C20.0473 0.695986 23.0808 0.883836 25.4321 1.92883L26.2444 0.1012C23.3842 -1.16996 19.8881 -1.31547 15.9303 -0.464855L16.3505 1.4905ZM7.87143 4.83271C10.4902 3.25438 13.3552 2.1249 16.3476 1.49112L15.9332 -0.465478C12.7228 0.214484 9.64889 1.4263 6.83905 3.11976L7.87143 4.83271ZM2.25884 10.3247C3.39445 8.26221 5.26532 6.40858 7.87268 4.83196L6.8378 3.12051C4.00389 4.83413 1.84908 6.9223 0.506849 9.36007L2.25884 10.3247ZM1.15958 16.2714C0.763119 14.4246 1.09758 12.4293 2.2584 10.3255L0.507282 9.35929C-0.840084 11.8012 -1.31206 14.2867 -0.795864 16.6912L1.15958 16.2714ZM3.50917 19.2917C2.18618 18.5401 1.43245 17.5287 1.15911 16.2692L-0.795391 16.6934C-0.388025 18.5705 0.76161 20.0311 2.52129 21.0307L3.50917 19.2917ZM7.94035 19.8787C6.27146 20.24 4.79876 20.0253 3.50968 19.292L2.52077 21.0304C4.27967 22.031 6.26252 22.2882 8.36349 21.8334L7.94035 19.8787ZM11.3395 17.7792C10.6164 18.8266 9.51242 19.5402 7.94143 19.8785L8.36242 21.8336C10.3402 21.4078 11.9243 20.4525 12.9854 18.9153L11.3395 17.7792ZM12.0415 14.3558C12.3061 15.5739 12.0794 16.7072 11.3395 17.7792L12.9854 18.9153C14.0296 17.4027 14.3817 15.7068 13.9959 13.9312L12.0415 14.3558ZM9.88342 11.5284C11.1882 12.4825 11.8423 13.4446 12.0418 14.3571L13.9957 13.9299C13.6575 12.3834 12.6099 11.0445 11.0639 9.91402L9.88342 11.5284ZM8.02012 9.27193C8.16903 9.95816 8.72415 10.6979 9.89126 11.5341L11.0561 9.90835C10.0359 9.17737 9.96665 8.81099 9.97464 8.84782L8.02012 9.27193ZM8.86929 6.77981C8.22835 7.4681 7.81869 8.3126 8.01872 9.26535L9.97604 8.8544C9.9593 8.77463 9.93984 8.56495 10.333 8.14278L8.86929 6.77981ZM13.4014 4.42724C11.5375 4.82807 9.99131 5.59758 8.87581 6.77288L10.3264 8.14971C11.097 7.33788 12.2432 6.72202 13.8219 6.38254L13.4014 4.42724ZM16.9015 4.66524C15.779 4.24543 14.558 4.16362 13.3895 4.42989L13.8338 6.3799C14.6214 6.20043 15.4444 6.25559 16.2009 6.53851L16.9015 4.66524ZM19.4197 6.49745C18.8404 5.66452 17.964 5.06726 16.9051 4.66659L16.1973 6.53716C16.9919 6.83784 17.4899 7.22548 17.7778 7.63938L19.4197 6.49745ZM21.2022 12.2196C20.808 10.3899 20.4711 9.12543 20.1868 8.24971C19.9085 7.39242 19.661 6.84416 19.4195 6.49719L17.778 7.63964C17.8476 7.73967 18.0228 8.06105 18.2846 8.86728C18.5403 9.65509 18.8608 10.848 19.2471 12.6408L21.2022 12.2196ZM21.9946 15.8996L21.2022 12.2197L19.247 12.6407L20.0394 16.3206L21.9946 15.8996ZM7.1463 29.8564C9.10172 27.0468 13.9173 22.7018 21.6181 16.9093L20.4158 15.3109C12.738 21.0862 7.66821 25.6054 5.50474 28.7139L7.1463 29.8564ZM5.10925 38.3923C4.5043 35.5831 5.14721 32.7276 7.14619 29.8565L5.50484 28.7137C3.24619 31.9578 2.4128 35.3711 3.15408 38.8133L5.10925 38.3923ZM8.29954 43.1222C6.63193 42.0554 5.55982 40.4866 5.1093 38.3925L3.15403 38.8131C3.70939 41.3946 5.0761 43.4343 7.22172 44.807L8.29954 43.1222ZM21.1679 19.2793C18.5422 21.8214 16.6238 24.391 15.5134 26.9335L17.3462 27.7339C18.3213 25.5012 20.0557 23.1398 22.5591 20.7162L21.1679 19.2793ZM25.4555 31.9111L22.841 19.787L20.886 20.2086L23.5004 32.3327L25.4555 31.9111ZM20.7809 36.2799C22.3753 35.9329 23.8763 34.6132 25.2813 32.7173L23.6745 31.5265C22.3459 33.3191 21.2173 34.1381 20.3555 34.3257L20.7809 36.2799ZM17.1748 35.6765C18.2182 36.4207 19.442 36.5644 20.7761 36.281L20.3604 34.3247C19.4225 34.5239 18.8102 34.3863 18.3361 34.0482L17.1748 35.6765ZM14.8453 32.2246C15.1582 33.6745 15.943 34.8182 17.1838 35.6828L18.3271 34.0419C17.4803 33.4518 17.0012 32.7339 16.8003 31.8027L14.8453 32.2246ZM15.5119 26.9369C14.7321 28.7409 14.4792 30.5297 14.8454 32.2248L16.8003 31.8025C16.5399 30.597 16.6968 29.2363 17.3477 27.7305L15.5119 26.9369ZM31.9401 60.725C31.8042 60.7247 31.6683 60.7315 31.5331 60.7453L31.7362 62.735C31.8027 62.7282 31.8694 62.7248 31.9362 62.725L31.9401 60.725ZM37.5807 62.175C35.1285 61.2562 33.1957 60.725 31.9381 60.725V62.725C32.792 62.725 34.4146 63.1245 36.879 64.0479L37.5807 62.175ZM38.0194 62.3363L37.575 62.1729L36.8847 64.05L37.3291 64.2134L38.0194 62.3363ZM49.4404 67.1536C48.7042 66.6971 47.3601 66.0679 45.4879 65.2803C43.5946 64.4839 41.1024 63.5018 38.0279 62.3395L37.3206 64.2102C40.3843 65.3684 42.8511 66.3409 44.7125 67.1239C46.5949 67.9157 47.8014 68.4906 48.3864 68.8534L49.4404 67.1536ZM52.3807 70.3201C51.8813 69.0693 50.8369 68.0165 49.4391 67.1528L48.3878 68.8542C49.5719 69.5858 50.2379 70.347 50.5232 71.0617L52.3807 70.3201ZM52.3481 72.6849C52.6625 71.9353 52.6761 71.0936 52.3862 70.3342L50.5177 71.0476C50.6243 71.3267 50.6193 71.6359 50.5037 71.9114L52.3481 72.6849ZM47.042 75.9798C48.3311 75.8895 49.4586 75.6016 50.3754 75.049C51.3113 74.4849 51.9748 73.6758 52.3615 72.6513L50.4904 71.945C50.2582 72.5602 49.8844 73.0098 49.3429 73.3361C48.7823 73.6741 47.9924 73.9084 46.9022 73.9847L47.042 75.9798ZM37.2757 74.0654C41.0601 75.4882 44.3494 76.1649 47.0407 75.9799L46.9035 73.9846C44.6196 74.1416 41.6395 73.5694 37.9796 72.1933L37.2757 74.0654ZM28.5325 68.7636C29.2149 69.7511 30.3315 70.6641 31.769 71.5218C33.219 72.3869 35.0633 73.2352 37.2763 74.0656L37.979 72.1931C35.8336 71.3881 34.1074 70.588 32.7937 69.8043C31.4675 69.013 30.627 68.2766 30.1778 67.6266L28.5325 68.7636ZM27.4577 63.6134C26.8302 65.2823 27.3285 67.0189 28.5321 68.763L30.1782 67.6271C29.1576 66.1481 29.0294 65.1162 29.3298 64.3173L27.4577 63.6134ZM31.5031 60.7488C29.555 61.0074 28.1044 61.9008 27.4582 63.6121L29.3293 64.3186C29.6434 63.4865 30.3216 62.9231 31.7662 62.7314L31.5031 60.7488ZM53.8398 20.8134C52.6068 20.8134 51.4254 21.2668 50.2736 22.062L51.4099 23.7079C52.3304 23.0723 53.1218 22.8134 53.8398 22.8134V20.8134ZM55.6664 21.1576C55.0852 20.9333 54.468 20.8167 53.8451 20.8135L53.8346 22.8134C54.2149 22.8154 54.5917 22.8866 54.9464 23.0235L55.6664 21.1576ZM58.9331 24.8559C58.5073 23.0491 57.4017 21.8109 55.6587 21.1547L54.954 23.0264C56.0856 23.4525 56.7164 24.1689 56.9865 25.3147L58.9331 24.8559ZM57.0531 35.6609C57.9467 33.2851 58.5638 31.193 58.8863 29.4059C59.2064 27.6325 59.2505 26.0846 58.9281 24.8354L56.9915 25.3352C57.2111 26.1857 57.2146 27.408 56.9181 29.0507C56.6242 30.6796 56.049 32.6494 55.1812 34.9568L57.0531 35.6609ZM51.9639 43.9183C52.9244 43.2966 53.8023 42.2445 54.6206 40.8906C55.4475 39.5225 56.2581 37.7706 57.0529 35.6615L55.1814 34.9562C54.412 36.9978 53.651 38.6282 52.9089 39.856C52.1583 41.098 51.47 41.8556 50.8771 42.2393L51.9639 43.9183ZM46.5659 44.6495C48.4042 45.3383 50.2071 45.0555 51.9639 43.9183L50.8771 42.2393C49.5708 43.0849 48.4276 43.2113 47.2677 42.7766L46.5659 44.6495ZM43.2616 40.6201C43.7977 42.5929 44.8487 44.0054 46.5657 44.6494L47.268 42.7767C46.3185 42.4206 45.6114 41.6404 45.1915 40.0956L43.2616 40.6201ZM44.7682 31.4547C44.0224 33.4327 43.5101 35.1863 43.249 36.6969C42.99 38.1957 42.9654 39.5254 43.2612 40.619L45.1919 40.0968C45.0031 39.3991 44.9851 38.3953 45.2198 37.0376C45.4524 35.6917 45.9211 34.0658 46.6396 32.1604L44.7682 31.4547ZM50.2734 22.0621C49.2937 22.7387 48.3735 23.9182 47.4904 25.4519C46.5954 27.0061 45.6872 29.0161 44.7682 31.4549L46.6397 32.1602C47.5373 29.7784 48.4018 27.8769 49.2236 26.4499C50.0571 25.0023 50.7974 24.1308 51.41 23.7078L50.2734 22.0621Z" fill="#1A2124" mask="url(#path-1-inside-1_241_1015)"/>
<path d="M403.982 52.0399V27.0799H410.366V30.7279C411.662 27.9439 414.158 26.5039 417.998 26.5039C423.374 26.5039 427.502 30.4879 427.502 36.7759V52.0399H421.022V38.3599C421.022 34.0399 418.862 32.1679 415.646 32.1679C412.91 32.1679 410.462 34.0399 410.462 38.3599V52.0399H403.982Z" fill="#1A2124" fill-opacity="0.5"/>
<path d="M387.158 62.2641C382.118 62.2641 378.182 61.0641 375.206 57.5601L379.238 52.8081C381.59 55.4961 384.086 56.2641 387.206 56.2641C390.662 56.2641 393.686 53.4321 393.686 49.4481V48.3441C392.342 50.6481 390.182 52.1841 386.15 52.1841C379.286 52.1841 374.054 46.5201 374.054 39.3201C374.054 32.1201 379.286 26.4561 386.15 26.4561C390.278 26.4561 392.486 28.0401 393.782 30.4881V27.0801H400.166V49.8321C400.166 57.5121 394.79 62.2641 387.158 62.2641ZM380.534 39.3201C380.534 43.1121 382.982 46.2801 387.206 46.2801C391.478 46.2801 393.974 43.2081 393.974 39.3201C393.974 35.4321 391.478 32.3601 387.206 32.3601C382.982 32.3601 380.534 35.4321 380.534 39.3201Z" fill="#1A2124" fill-opacity="0.5"/>
<path d="M364.701 52.0403V27.0803H371.181V52.0403H364.701ZM364.029 21.1763C364.029 19.1123 365.709 17.3843 367.917 17.3843C370.173 17.3843 371.805 19.1123 371.805 21.1763C371.805 23.3363 370.173 25.0163 367.917 25.0163C365.709 25.0163 364.029 23.2883 364.029 21.1763Z" fill="#1A2124" fill-opacity="0.5"/>
<path d="M352.48 52.6641C348.256 52.6641 344.848 51.2241 342.112 48.2961L346.48 44.3121C348.304 46.3761 350.224 47.3841 352.336 47.3841C354.544 47.3841 355.792 46.2801 355.792 44.7921C355.792 43.4961 355.168 42.7761 351.232 41.8641C344.56 40.2801 343.552 37.2561 343.552 34.0881C343.552 29.7201 347.008 26.4561 352.864 26.4561C356.896 26.4561 359.584 27.4641 362.128 30.7761L357.424 34.3761C356.224 32.4561 354.688 31.6881 353.008 31.6881C351.232 31.6881 349.888 32.3601 349.888 33.8961C349.888 34.7601 350.272 35.5281 353.248 36.2961C360.496 38.1681 362.176 40.8561 362.176 44.6001C362.176 49.2081 358 52.6641 352.48 52.6641Z" fill="#1A2124" fill-opacity="0.5"/>
<path d="M329.122 52.6641C321.394 52.6641 316.21 46.8081 316.21 39.6081C316.21 32.4081 321.634 26.4561 329.122 26.4561C336.61 26.4561 341.794 32.4081 341.794 39.6081C341.794 40.3281 341.746 41.0961 341.602 41.9121H322.93C323.65 44.8401 325.858 46.9041 329.122 46.9041C331.906 46.9041 334.066 45.4641 335.218 43.5441L340.258 47.3361C338.242 50.4561 334.066 52.6641 329.122 52.6641ZM322.93 37.0641H335.266C334.546 34.2801 332.194 32.0241 329.026 32.0241C325.954 32.0241 323.65 34.0881 322.93 37.0641Z" fill="#1A2124" fill-opacity="0.5"/>
<path d="M298.968 52.664C292.104 52.664 286.632 46.856 286.632 39.656C286.632 32.456 292.104 26.552 298.968 26.552C303.24 26.552 305.496 28.28 306.84 30.92V17H313.32V52.04H307.032V47.96C305.688 50.792 303.432 52.664 298.968 52.664ZM293.112 39.608C293.112 43.4 295.896 46.808 300.024 46.808C304.296 46.808 307.032 43.544 307.032 39.656C307.032 35.768 304.296 32.408 300.024 32.408C295.896 32.408 293.112 35.72 293.112 39.608Z" fill="#1A2124" fill-opacity="0.5"/>
<path d="M260.451 52.0399V27.0799H266.835V30.7279C268.131 27.9439 270.627 26.5039 274.467 26.5039C279.843 26.5039 283.971 30.4879 283.971 36.7759V52.0399H277.491V38.3599C277.491 34.0399 275.331 32.1679 272.115 32.1679C269.379 32.1679 266.931 34.0399 266.931 38.3599V52.0399H260.451Z" fill="#1A2124"/>
<path d="M244.287 52.6639C236.559 52.6639 230.991 46.8079 230.991 39.6079C230.991 32.4079 236.559 26.5039 244.287 26.5039C252.015 26.5039 257.583 32.4079 257.583 39.6079C257.583 46.8079 252.015 52.6639 244.287 52.6639ZM237.471 39.6079C237.471 43.4959 240.159 46.7599 244.287 46.7599C248.415 46.7599 251.103 43.4959 251.103 39.6079C251.103 35.7199 248.415 32.4079 244.287 32.4079C240.159 32.4079 237.471 35.7199 237.471 39.6079Z" fill="#1A2124"/>
<path d="M213.749 52.664C206.885 52.664 201.413 46.856 201.413 39.656C201.413 32.456 206.885 26.552 213.749 26.552C218.021 26.552 220.277 28.28 221.621 30.92V17H228.101V52.04H221.813V47.96C220.469 50.792 218.213 52.664 213.749 52.664ZM207.893 39.608C207.893 43.4 210.677 46.808 214.805 46.808C219.077 46.808 221.813 43.544 221.813 39.656C221.813 35.768 219.077 32.408 214.805 32.408C210.677 32.408 207.893 35.72 207.893 39.608Z" fill="#1A2124"/>
<path d="M187.42 52.04V27.08H193.708V31.832C194.572 28.232 197.116 26.264 201.436 26.504V32.6H200.524C196.78 32.6 193.9 35.096 193.9 39.272V52.04H187.42Z" fill="#1A2124"/>
<path d="M171.256 52.6639C163.528 52.6639 157.96 46.8079 157.96 39.6079C157.96 32.4079 163.528 26.5039 171.256 26.5039C178.984 26.5039 184.552 32.4079 184.552 39.6079C184.552 46.8079 178.984 52.6639 171.256 52.6639ZM164.44 39.6079C164.44 43.4959 167.128 46.7599 171.256 46.7599C175.384 46.7599 178.072 43.4959 178.072 39.6079C178.072 35.7199 175.384 32.4079 171.256 32.4079C167.128 32.4079 164.44 35.7199 164.44 39.6079Z" fill="#1A2124"/>
<path d="M142.095 62.2641C137.055 62.2641 133.119 61.0641 130.143 57.5601L134.175 52.8081C136.527 55.4961 139.023 56.2641 142.143 56.2641C145.599 56.2641 148.623 53.4321 148.623 49.4481V48.3441C147.279 50.6481 145.119 52.1841 141.087 52.1841C134.223 52.1841 128.991 46.5201 128.991 39.3201C128.991 32.1201 134.223 26.4561 141.087 26.4561C145.215 26.4561 147.423 28.0401 148.719 30.4881V27.0801H155.103V49.8321C155.103 57.5121 149.727 62.2641 142.095 62.2641ZM135.471 39.3201C135.471 43.1121 137.919 46.2801 142.143 46.2801C146.415 46.2801 148.911 43.2081 148.911 39.3201C148.911 35.4321 146.415 32.3601 142.143 32.3601C137.919 32.3601 135.471 35.4321 135.471 39.3201Z" fill="#1A2124"/>
<path d="M104.296 52.6642C97.432 52.6642 91.96 46.8562 91.96 39.6562C91.96 32.4562 97.432 26.5522 104.296 26.5522C108.616 26.5522 110.872 28.3282 112.216 31.0162V27.0802H118.648V52.0402H112.36V47.9602C111.016 50.7922 108.76 52.6642 104.296 52.6642ZM98.44 39.6082C98.44 43.4002 101.224 46.8082 105.352 46.8082C109.624 46.8082 112.36 43.5442 112.36 39.6562C112.36 35.7682 109.624 32.4082 105.352 32.4082C101.224 32.4082 98.44 35.7202 98.44 39.6082Z" fill="#1A2124"/>
</svg>
