<?xml version="1.0" encoding="utf-8"?>
<!-- Generator: Adobe Illustrator 28.0.0, SVG Export Plug-In . SVG Version: 6.00 Build 0)  -->
<svg version="1.1" id="Layer_1" xmlns="http://www.w3.org/2000/svg" xmlns:xlink="http://www.w3.org/1999/xlink" x="0px" y="0px"
	 viewBox="0 0 703.9 729.8" style="enable-background:new 0 0 703.9 729.8;" xml:space="preserve">
<style type="text/css">
	.st0{fill:#FFFFFF;}
</style>
<g id="Layer_2_00000039836454076769285780000009758107263509407888_">
	<g id="Layer_1-2">
		<path class="st0" d="M580.1,215.7l118.4,44.6l-15.4,40.9l-67.4-25.4c7.7,16.8,12,31.1,13,42.8c1,15.5-1.4,31-6.9,45.5
			c-9.4,24.9-24.4,43.8-45.2,56.9c-20.8,13.1-45.1,20.2-72.9,21.5c-27.8,1.3-51-1.6-69.5-8.5c-1.5-0.6-16.3-6.9-44.4-18.8
			c-11.3-4.3-22.2-4.2-32.6,0.2c-10.4,4.4-17.5,11.6-21.3,21.8c-3.4,8.5-2.6,18,2.1,25.8c4.8,8.3,15,15.4,30.6,21.3l65.6,23.8
			c52.9,19.9,87.1,39.3,102.7,58.3c22.4,26.7,27.4,56.6,14.9,89.8c-8,21.2-21.8,38-41.3,50.5c-19.5,12.5-41.5,18.8-65.9,19
			c-36.9,0-76.4-7.9-118.5-23.7c-31.6-11.9-59.2-25.8-83-41.7s-39.2-31.4-46.4-46.5c-7.2-15.1-8.6-28.6-4.1-40.6
			c4.3-11.5,12.5-20.2,24.5-26s30.9-7.4,56.7-4.9c-26.7-28.2-34.7-56.5-24-84.8c6.4-17.1,19.3-31.3,38.5-42.5
			c19.3-11.2,45.4-17.4,78.5-18.5c-28.6-24.7-46.6-49.8-53.9-75.3s-6.1-51.4,3.7-77.6c12.8-34.1,37.9-58.4,75.3-72.9
			s78-13.5,122,3.1C537,182.4,559.1,196.4,580.1,215.7z M345,579.2c-25.8-9.7-43.6-14-53.5-12.9c-17.3,2.3-28.4,10.1-33.4,23.3
			c-4.8,12.7-1.7,27,9.3,43s37.1,31.7,78.3,47.2c35.1,13.2,64.4,19,88,17.3c23.6-1.6,38.5-10.8,44.8-27.5c2.3-5.7,2.4-12.1,0.2-17.8
			c-4-10-12.4-19-25.1-26.9S404.6,601.7,345,579.2L345,579.2z M511.8,200.2c-14.6-5.5-29.6-2.9-45.1,7.8
			c-15.5,10.7-31.8,38.8-48.9,84.5c-13.9,36.9-18.5,64.1-13.7,81.5s13.9,28.7,27.4,33.8c15,5.7,30.1,3.6,45.3-6.3s30.2-34.5,45-73.9
			c16.7-44.3,22.4-76.6,17.1-97C535.3,215.9,526.2,205.7,511.8,200.2L511.8,200.2z"/>
		<path class="st0" d="M444.2,729.8c-37.2,0-77.5-8.1-119.7-24c-31.8-12-60-26.2-83.9-42.1c-24.3-16.2-40.4-32.5-47.9-48.2
			c-7.7-16.1-9.1-30.9-4.2-43.9c4.7-12.5,13.6-22,26.6-28.3c11.1-5.4,27.1-7.4,48.5-6.1c-22.1-26.8-28.1-54.1-17.9-81.3
			c6.8-18,20.3-33,40.4-44.6c17.7-10.3,41.3-16.5,70.2-18.6c-24.7-23-40.7-46.6-47.5-70.5c-7.6-26.3-6.3-53.3,3.8-80.2
			c13.2-35.1,39.4-60.5,77.7-75.3c38.2-14.8,80.2-13.8,125,3c23.4,8.8,45.9,23.1,67,42.4l121.6,45.8l-18.4,48.8l-62.1-23.4
			c5.4,13.3,8.6,25.1,9.4,35c1,16.1-1.4,32.3-7.1,47.4c-9.7,25.6-25.5,45.5-46.9,59c-21.3,13.5-46.5,20.9-74.9,22.2
			c-28.2,1.3-52.2-1.6-71.2-8.8c-0.6-0.2-2.4-0.9-44.6-18.9c-10.2-3.8-19.9-3.8-29.3,0.2s-15.6,10.3-19,19.4
			c-2.9,7.2-2.2,15.4,1.8,22.1c4.3,7.5,13.9,14,28.5,19.5l65.6,23.8c54.1,20.4,88.3,39.8,104.5,59.6c23.3,27.8,28.6,59.4,15.6,93.9
			c-8.3,21.9-22.8,39.6-43,52.5s-43.1,19.5-68.2,19.6L444.2,729.8z M252.2,545.2c-14.4,0-25.5,1.9-33.3,5.7
			c-11.1,5.4-18.4,13.1-22.4,23.7c-4.1,10.8-2.8,23.4,3.9,37.3c6.8,14.4,21.9,29.5,44.9,44.8c23.4,15.6,51,29.5,82.2,41.2
			c41.3,15.5,80.5,23.4,116.7,23.4h0.3c23.5-0.2,44.9-6.3,63.7-18.3c18.8-12,32-28.2,39.6-48.4c12-31.9,7.4-59.9-14.2-85.6
			c-15.1-18.3-49-37.5-100.9-57.1l-65.6-23.8c-16.8-6.3-27.5-13.9-32.8-23.1c-5.4-8.9-6.3-19.8-2.4-29.4
			c4.2-11.1,12.1-19.2,23.6-24.1s23.4-4.9,35.8-0.3c34.9,14.9,43.4,18.5,44.4,18.8c17.9,6.7,40.7,9.5,67.8,8.2
			c26.9-1.3,50.8-8.3,70.8-20.9c19.9-12.5,34.5-30.9,43.5-54.8c5.3-14,7.6-28.9,6.6-43.8c-0.9-11.1-5.2-25-12.6-41.3l-4.3-9.3
			l73,27.5l12.4-33l-115.8-43.9c-20.5-18.8-42.3-32.7-64.9-41.2c-42.7-16.1-82.8-17.1-119-3.1c-36,14-60.5,37.7-72.9,70.4
			c-9.5,25.2-10.7,50.4-3.6,74.9s24.8,49.3,52.6,73.3l8.2,7l-10.8,0.4c-32.2,1.1-58,7.2-76.5,18c-18.3,10.6-30.6,24.2-36.7,40.3
			c-10.1,26.9-2.6,53.2,23.1,80.4l7.8,8.2l-11.2-1.1C265.6,545.6,258.6,545.2,252.2,545.2L252.2,545.2z M425.8,701.5
			c-22.6,0-50-6-81.7-17.9c-42.4-16-68.7-31.9-80.3-48.7c-11.8-17.1-15.1-32.8-9.8-46.8c5.5-14.7,17.9-23.5,36.8-26
			c9.9-1.1,26.3,2.5,49.9,11V573l5.7,2.2c60.4,22.8,96.1,37.8,109.3,46c13.5,8.4,22.5,18.1,26.8,29c2.6,6.8,2.5,14.3-0.3,21
			c-6.8,18.2-23.1,28.4-48.4,30.1C431.3,701.4,428.6,701.5,425.8,701.5z M294.6,570.4c-0.9,0-1.9,0-2.8,0.1
			c-15.6,2.1-25.5,8.8-29.9,20.6c-4.3,11.4-1.4,24.2,8.9,39.1c10.4,15.1,36.1,30.5,76.3,45.6c34.3,12.9,63.3,18.7,86.2,17.1
			c22-1.5,35.4-9.7,41.1-24.8c2-4.7,2.1-10.1,0.2-14.8c-3.6-9.1-11.5-17.5-23.4-24.8c-12.2-7.6-47.1-22.2-103.7-43.7l-4.1-1.5
			C320.8,574.7,304.4,570.4,294.6,570.4z M447.9,415.2c-6.2,0-12.3-1.2-18-3.4c-14.8-5.6-24.9-17.9-30-36.7
			c-5-18.5-0.5-46,13.9-84.1c17.6-46.8,34.1-75.1,50.5-86.4c16.6-11.5,33.1-14.3,48.9-8.3l0,0c15.9,6,25.9,17.3,29.7,33.5
			c5.5,21.3-0.1,53.9-17.3,99.5c-15.3,40.6-30.5,65.5-46.6,75.9C468.7,411.8,458.2,415.2,447.9,415.2z M496.7,201.6
			c-9,0-18.1,3.3-27.7,9.9c-14.7,10.2-30.6,37.9-47.4,82.4c-13.5,35.9-18.1,62.5-13.6,79c4.4,16.2,12.5,26.4,24.8,31
			c13.8,5.2,27.4,3.3,41.5-5.9c14.3-9.3,28.9-33.4,43.3-71.8c16.2-43.3,22-75.1,17-94.5c-3.2-13.6-11.2-22.7-24.5-27.7
			C505.9,202.5,501.3,201.6,496.7,201.6z"/>
		<path class="st0" d="M236.4,325.9c-35.6,49.8-71.1,78.5-106.4,86.1c-20.7,4.5-39.5,1.4-56.1-9.4s-27.2-26.3-31.6-46.9
			c-6-27.8,0.5-55.4,19.6-82.8s64.6-68.2,136.8-122.4l-7.9-36.6c-5.9-27.5-11.2-44.5-15.7-51c-4.5-6.5-11.4-11.5-20.9-15.1
			c-9.4-3.6-19.7-4.3-29.6-2c-16.7,3.6-29.8,10.4-39.1,20.2c-5.8,6.1-8,12.3-6.6,18.5c1.2,5.5,6.3,11.4,15.3,17.9
			c12.3,9,19.6,18.7,21.8,29.1c2.8,12.7,0.3,24.6-7.2,35.6c-7.6,11-19.1,18.1-34.4,21.4c-16.4,3.5-31.2,1.5-44.4-6
			c-13.2-7.5-21.2-17.9-24.1-31.1c-4-18.7-0.5-38.2,10.6-58.5s29-37.8,53.5-52.6c24.6-14.9,51.6-25.5,79.7-31.5
			c34.6-7.5,63.6-6,86.9,4.4s39.8,23.5,49.5,39.4c6,10.1,13.2,34.9,21.7,74.2l30.5,141.8c3.6,16.7,6.5,27,8.7,31s4.8,6.8,7.9,8.3
			c3,1.5,6.3,1.9,9.6,1.2c6.8-1.5,12.5-7.7,17.4-18.9l13.8,6.9c-8.9,22.1-19.4,39-31.4,50.7c-12.1,11.7-26.9,19.5-44.7,23.3
			c-20.9,4.5-38.2,3-52.1-4.5C253.8,359.2,243.3,345.6,236.4,325.9z M230.4,297.8l-26.1-121.2c-27.1,25.2-45.9,50-56.6,74.3
			c-7,16.2-9,31.5-5.9,45.8c2.6,12,9.1,21.6,19.5,28.9c8,5.6,17.7,7.2,29.2,4.7C203.4,327.6,216.7,316.7,230.4,297.8L230.4,297.8z"
			/>
		<path class="st0" d="M112.3,418.3c-14.4,0.1-28.6-4.1-40.7-12C54,395,42.8,378.3,38.1,356.7c-6.2-28.9,0.6-57.8,20.2-86.1
			c19-27.3,64.6-68.3,135.5-121.7l-7.3-34c-7.2-33.5-12.1-45.4-15-49.5c-4-5.8-10.3-10.3-18.9-13.5c-8.7-3.2-18.1-3.9-27.1-1.8
			c-15.9,3.4-28.3,9.8-37,19C83.8,74.1,82,79,83,83.8c0.7,3,3.5,8.1,13.6,15.3c13.2,9.6,21,20.3,23.5,31.6c3,13.8,0.3,26.9-7.9,38.8
			s-20.6,19.6-37,23.2c-17.4,3.8-33.3,1.6-47.4-6.4c-14.2-8.1-23-19.5-26.1-34C-2.5,132.7,1.2,112,12.8,91
			c11.4-20.8,30-39,55.1-54.2c25-15.1,52.4-25.9,81-32c35.3-7.6,65.4-6.1,89.5,4.6s41.3,24.5,51.4,41c6.3,10.6,13.6,35.3,22.2,75.5
			l30.5,141.8c4.4,20.2,6.9,27.4,8.3,29.9c1.8,3.2,3.8,5.5,6.1,6.6c2.1,1.1,4.5,1.4,6.8,0.9c5.3-1.1,10.2-6.7,14.5-16.5l1.8-4
			l21.3,10.6l-1.5,3.6c-9,22.5-20,40.1-32.4,52.2s-28.3,20.5-46.7,24.4c-21.8,4.7-40.3,3-55-4.9c-13-7-23.2-19-30.4-35.8
			c-34.6,46.7-69.7,74.1-104.4,81.6C124.8,417.6,118.5,418.3,112.3,418.3z M136.1,40.4c6.7,0,13.3,1.2,19.5,3.6
			c10.2,3.8,17.9,9.4,22.9,16.6c4.9,7,10.2,24.2,16.3,52.6l8.4,39.3l-2.1,1.5C129.7,207.7,84,248.6,65.3,275.5
			c-18.3,26.3-24.6,53-18.9,79.5c4.2,19.6,14,34.1,29.8,44.2c15.6,10,33.5,13,53,8.8c34-7.3,69-35.8,103.8-84.5l4.7-6.6l2.7,7.6
			c6.6,18.6,16.5,31.5,29.3,38.5s29.5,8.3,49.2,4.1c16.9-3.6,31.2-11.1,42.6-22.2c10.9-10.6,20.6-26,29-45.7L384,296
			c-5.1,10.1-11.2,15.8-18.5,17.3c-4.2,0.9-8.6,0.4-12.4-1.6c-3.8-1.9-7-5.3-9.7-10c-1.5-2.8-4.2-9.2-9.1-32.2l-30.6-141.8
			c-8.3-38.8-15.5-63.3-21.2-73c-9.2-15-25.2-27.7-47.6-37.7S184.2,5.8,150.7,13C123,18.9,96.5,29.4,72.2,44
			c-23.8,14.4-41.3,31.6-52,51c-10.6,19.3-14,38-10.2,55.6c2.6,12.2,9.9,21.4,22.1,28.4s26.1,8.8,41.4,5.5
			c14.4-3.1,24.8-9.6,31.8-19.7s9.1-20.6,6.6-32.3c-2-9.3-8.8-18.2-20.2-26.6c-10-7.1-15.5-13.8-16.9-20.4
			c-1.7-7.6,0.9-15.1,7.7-22.3c9.9-10.5,23.8-17.7,41.3-21.5C127.8,40.9,132,40.4,136.1,40.4z M180.5,335.7
			c-7.7,0.1-15.3-2.2-21.6-6.7c-11.3-7.9-18.4-18.5-21.2-31.4c-3.3-15.1-1.2-31.4,6.1-48.4c10.8-24.8,30.2-50.2,57.5-75.7l5.4-5.1
			l28.1,130.3l-1.1,1.5c-14.5,20-28.3,31.2-42.2,34.2C187.9,335.3,184.2,335.7,180.5,335.7L180.5,335.7z M201.7,184.8
			c-23.7,22.9-40.5,45.7-50.1,67.8c-6.6,15.3-8.5,29.8-5.6,43.2c2.4,11,8.2,19.6,17.8,26.3c7,5,15.5,6.3,25.9,4.1
			c11.3-2.5,23.5-12.4,36.1-29.4L201.7,184.8z"/>
	</g>
</g>
</svg>
