<svg width="68" height="97" viewBox="0 0 68 97" fill="none" xmlns="http://www.w3.org/2000/svg">
<path d="M3.36426 26.9097C5.38111 36.6202 15.6018 40.2861 23.2303 44.7766C28.219 47.7129 33.2255 52.8381 35.7763 58.0522L35.5746 58.331C31.0485 54.7482 27.5665 51.4915 21.943 49.4984C15.673 47.3273 9.11822 47.268 4.04643 42.4394C0.184753 38.7972 -2.3897 30.4154 3.36426 26.9097Z" fill="white"/>
<path fill-rule="evenodd" clip-rule="evenodd" d="M32.8913 32.1754C32.8168 32.0613 32.7424 31.9473 32.668 31.8332L32.8913 32.1754Z" fill="white"/>
<path d="M31.2562 67.1163C24.9387 74.2286 25.2116 91.0575 29.1741 95.803C30.6891 97.6175 31.0595 95.9259 31.8071 92.5114C33.0148 86.9956 35.2068 76.9839 44.7987 69.9933C48.4113 67.4069 51.1518 63.2012 51.8874 58.8116C53.4653 49.1722 48.3698 41.1701 40.8599 35.7305C40.7617 35.659 40.661 35.5854 40.558 35.5102C38.4226 33.9511 35.305 31.6748 32.668 31.8332C32.7424 31.9473 32.8168 32.0613 32.8913 32.1754C37.6203 39.4203 42.4278 46.7853 39.1515 56.0592C37.7462 60.0703 35.4819 62.5199 32.9363 65.2737C32.3874 65.8675 31.8254 66.4755 31.2562 67.1163Z" fill="white"/>
<path d="M11.5266 11.5223C11.1291 16.778 11.3012 21.4049 14.2731 25.9724C20.5312 35.6059 35.5686 43.8097 36.2805 56.5396C36.2923 56.7769 35.9839 56.8777 35.8534 56.6879C32.5434 52.0195 29.1325 46.5681 24.2743 43.347C18.0695 39.2659 10.5063 37.0592 6.45479 30.3027C3.02021 24.5666 4.1888 14.0137 11.5325 11.5223" fill="white"/>
<path d="M65.6791 35.594C73.2126 43.5606 60.6251 54.4872 53.2636 46.2655C46.4715 38.6727 58.7031 28.2206 65.6791 35.594Z" fill="white"/>
<path d="M35.5094 13.1239C32.1934 18.2372 34.2637 25.8242 35.7763 29.152C36.1144 29.8994 35.1772 29.8934 34.3882 29.668C32.8222 29.2231 31.0901 28.6003 30.0757 27.6868C24.7014 22.9353 29.441 15.8348 34.2993 13.0587C34.6789 12.8392 35.1535 12.857 35.5094 13.118V13.1239Z" fill="white"/>
<path d="M27.4894 0.0677987C25.8225 2.36938 24.1142 4.52267 23.4023 7.3344C21.166 16.2085 26.9259 26.5064 31.7841 33.5594C36.0373 39.7345 40.9964 47.968 37.455 55.6677C37.3542 55.8872 36.9923 55.8812 36.9449 55.6439C36.3042 52.1619 36.3042 49.5875 29.8622 40.3337C24.6184 32.812 15.6671 28.1851 13.6265 18.6762C11.7758 9.99783 17.4407 -0.964355 27.4894 0.0677987Z" fill="white"/>
<path d="M53.0204 3.64475C50.6773 5.11587 48.0791 6.35564 46.2343 8.53266C38.3092 18.2017 50.1909 29.324 47.8893 39.5566L47.4088 39.6337C45.8072 37.4626 44.0098 35.5051 41.7913 33.8619C40.1541 32.6756 38.1372 32.0646 37.2415 30.1426C35.5034 26.3759 34.1272 21.4998 34.8213 17.3119C36.1204 9.48176 44.7691 1.50926 53.0204 3.64475Z" fill="white"/>
<path d="M34.6374 58.6751L34.4416 58.9598C29.8029 56.0769 24.648 56.154 24.2862 56.1006C24.2684 56.1006 24.2565 56.1006 24.2387 56.1006C23.5566 56.0532 7.23785 54.8846 1.70337 45.0613C1.70337 45.0613 5.38116 47.5172 9.94874 48.3476C12.6062 48.8281 16.895 48.573 23.9481 51.6398C27.2877 52.9805 34.6374 58.681 34.6374 58.681V58.6751Z" fill="white"/>
<path d="M5.86757 48.751L5.38708 48.8281L5.86757 48.751Z" fill="white"/>
</svg>
